#N canvas 307 272 951 415 10;
#X symbolatom 164 63 10 0 0 0 - - -;
#X floatatom 113 63 5 0 0 0 - - -;
#X floatatom 113 158 5 0 0 0 - - -;
#X floatatom 140 180 5 0 0 0 - - -;
#X floatatom 167 160 5 0 0 0 - - -;
#X floatatom 194 181 5 0 0 0 - - -;
#X obj 113 132 unpack f f f f;
#X text 22 62 Main Frequency;
#X text 232 62 SUS2 SUS4 MAJ7 MIN7 DOM7 DIM7 DOM7b5;
#N canvas 909 312 544 300 Chords 0;
#X obj 62 23 inlet;
#X obj 101 23 inlet;
#N canvas 127 110 728 451 Freq 0;
#X obj 135 133 t b f;
#X floatatom 72 184 8 0 0 0 - - -;
#X floatatom 23 156 5 0 0 0 - - -;
#X obj 72 210 t b f;
#X obj 23 227 *;
#X obj 135 106 / 12;
#X obj 72 150 pow;
#X msg 72 123 2;
#X obj 72 97 loadbang;
#X obj 257 133 t b f;
#X floatatom 194 184 8 0 0 0 - - -;
#X obj 194 210 t b f;
#X obj 145 227 *;
#X obj 257 106 / 12;
#X obj 194 150 pow;
#X msg 194 123 2;
#X obj 194 97 loadbang;
#X obj 396 138 t b f;
#X floatatom 333 189 8 0 0 0 - - -;
#X obj 333 215 t b f;
#X obj 284 232 *;
#X obj 396 111 / 12;
#X obj 333 155 pow;
#X msg 333 128 2;
#X obj 333 102 loadbang;
#X obj 535 138 t b f;
#X floatatom 472 189 8 0 0 0 - - -;
#X obj 472 215 t b f;
#X obj 423 232 *;
#X obj 535 111 / 12;
#X obj 472 155 pow;
#X msg 472 128 2;
#X obj 472 102 loadbang;
#X obj 23 26 inlet;
#X obj 23 298 pack f f f f;
#X obj 23 337 outlet;
#X obj 135 30 inlet;
#X obj 135 60 unpack f f f f;
#X connect 0 0 6 0;
#X connect 0 1 6 1;
#X connect 1 0 3 0;
#X connect 2 0 4 0;
#X connect 2 0 12 0;
#X connect 2 0 20 0;
#X connect 2 0 28 0;
#X connect 3 0 4 0;
#X connect 3 1 4 1;
#X connect 4 0 34 0;
#X connect 5 0 0 0;
#X connect 6 0 1 0;
#X connect 7 0 6 0;
#X connect 8 0 7 0;
#X connect 9 0 14 0;
#X connect 9 1 14 1;
#X connect 10 0 11 0;
#X connect 11 0 12 0;
#X connect 11 1 12 1;
#X connect 12 0 34 1;
#X connect 13 0 9 0;
#X connect 14 0 10 0;
#X connect 15 0 14 0;
#X connect 16 0 15 0;
#X connect 17 0 22 0;
#X connect 17 1 22 1;
#X connect 18 0 19 0;
#X connect 19 0 20 0;
#X connect 19 1 20 1;
#X connect 20 0 34 2;
#X connect 21 0 17 0;
#X connect 22 0 18 0;
#X connect 23 0 22 0;
#X connect 24 0 23 0;
#X connect 25 0 30 0;
#X connect 25 1 30 1;
#X connect 26 0 27 0;
#X connect 27 0 28 0;
#X connect 27 1 28 1;
#X connect 28 0 34 3;
#X connect 29 0 25 0;
#X connect 30 0 26 0;
#X connect 31 0 30 0;
#X connect 32 0 31 0;
#X connect 33 0 2 0;
#X connect 34 0 35 0;
#X connect 36 0 37 0;
#X connect 37 0 5 0;
#X connect 37 1 13 0;
#X connect 37 2 21 0;
#X connect 37 3 29 0;
#X restore 62 174 pd Freq;
#X msg 205 82 0 4 7 11;
#X msg 263 82 0 3 7 10;
#X msg 322 82 0 4 7 10;
#X msg 381 81 0 3 6 9;
#X obj 62 208 outlet;
#X msg 101 82 0 2 7 0;
#X msg 153 82 0 5 7 0;
#X obj 101 54 select SUS2 SUS4 MAJ7 MIN7 DOM7 DIM7 DOM7b5;
#X msg 436 81 0 4 6 10;
#X obj 62 103 t b f;
#X connect 0 0 12 0;
#X connect 1 0 10 0;
#X connect 2 0 7 0;
#X connect 3 0 2 1;
#X connect 4 0 2 1;
#X connect 5 0 2 1;
#X connect 6 0 2 1;
#X connect 8 0 2 1;
#X connect 9 0 2 1;
#X connect 10 0 8 0;
#X connect 10 1 9 0;
#X connect 10 2 3 0;
#X connect 10 3 4 0;
#X connect 10 4 5 0;
#X connect 10 5 6 0;
#X connect 10 6 11 0;
#X connect 11 0 2 1;
#X connect 12 0 2 0;
#X connect 12 1 2 0;
#X restore 113 100 pd Chords;
#X connect 0 0 9 1;
#X connect 1 0 9 0;
#X connect 6 0 2 0;
#X connect 6 1 3 0;
#X connect 6 2 4 0;
#X connect 6 3 5 0;
#X connect 9 0 6 0;
