#N canvas 0 0 1596 827 10;
#N canvas 1058 230 450 300 notein 0;
#X obj 25 24 notein;
#X obj 25 59 stripnote;
#X obj 26 153 s Freq;
#X obj 25 86 mtof;
#X floatatom 25 110 5 0 0 0 - - -;
#X obj 156 44 t b f;
#X obj 157 101 float;
#X obj 255 100 float;
#X obj 161 148 select 0;
#X obj 264 151 select;
#X obj 265 190 s ADSRIn2;
#X obj 207 201 s ADSRIn1;
#X obj 112 189 / 127;
#X obj 115 231 s Velocity;
#X connect 0 0 1 0;
#X connect 0 0 5 0;
#X connect 0 1 1 1;
#X connect 0 1 6 1;
#X connect 1 0 3 0;
#X connect 1 0 9 1;
#X connect 3 0 4 0;
#X connect 4 0 2 0;
#X connect 5 0 6 0;
#X connect 5 1 7 1;
#X connect 6 0 8 0;
#X connect 7 0 9 0;
#X connect 8 0 7 0;
#X connect 8 1 11 0;
#X connect 8 1 12 0;
#X connect 9 0 10 0;
#X connect 12 0 13 0;
#X restore 580 14 pd notein;
#N canvas 0 0 1600 827 OSC1 0;
#X obj 546 30 r Freq;
#X obj 28 34 vradio 15 1 0 6 OSC1WaveformOut OSC1WaveformIn empty 0
-8 0 10 -262144 -1 -1 1;
#X obj 122 34 vradio 15 1 0 6 OSC1RangeOut OSC1RangeIn empty 0 -8 0
10 -262144 -1 -1 1;
#X text 26 13 Waveform;
#X text 123 13 Range;
#X text 49 33 Sine;
#X text 49 48 Saw;
#X text 49 64 Square;
#X text 48 82 Wide Pulse;
#X text 49 97 Tri-Saw;
#X text 50 110 Triangle;
#X text 144 31 / 2;
#X text 143 48 * 1;
#X text 143 64 * 2;
#X text 143 80 * 4;
#X text 143 94 * 8;
#X text 143 111 * 16;
#X obj 215 62 knob 32 32 -0.01 0.01 0 0 OSC1FineOut OSC1FineIn empty
0 -8 0 8 -262144 -1 -1 1550 1;
#X text 215 30 Fine;
#X text 270 33 Tune;
#X obj 276 69 bng 15 250 50 0 OSC1TuneOut OSC1TuneIn empty 17 7 0 10
-262144 -1 -1;
#N canvas 291 222 450 300 Range 0;
#X obj 36 21 inlet;
#X obj 36 193 *;
#X obj 36 252 outlet;
#X obj 157 21 r OSC1RangeOut;
#X obj 157 58 sel 0 1 2 3 4 5;
#X msg 157 95 0.5;
#X msg 184 95 1;
#X msg 211 95 2;
#X msg 238 95 4;
#X msg 265 95 8;
#X msg 292 95 16;
#X obj 157 145 t b f;
#X connect 0 0 1 0;
#X connect 1 0 2 0;
#X connect 3 0 4 0;
#X connect 4 0 5 0;
#X connect 4 1 6 0;
#X connect 4 2 7 0;
#X connect 4 3 8 0;
#X connect 4 4 9 0;
#X connect 4 5 10 0;
#X connect 5 0 11 0;
#X connect 6 0 11 0;
#X connect 7 0 11 0;
#X connect 8 0 11 0;
#X connect 9 0 11 0;
#X connect 10 0 11 0;
#X connect 11 0 1 0;
#X connect 11 1 1 1;
#X restore 546 63 pd Range;
#N canvas 492 174 450 300 Fine 0;
#X obj 38 33 inlet;
#X obj 38 249 outlet;
#X obj 153 39 r OSC1FineOut;
#X obj 153 78 t b f;
#X floatatom 38 81 5 0 0 0 - - -;
#X obj 92 131 *;
#X obj 38 213 +;
#X floatatom 92 172 5 0 0 0 - - -;
#X connect 0 0 4 0;
#X connect 2 0 3 0;
#X connect 3 0 5 0;
#X connect 3 0 6 0;
#X connect 3 1 5 1;
#X connect 4 0 5 0;
#X connect 4 0 6 0;
#X connect 5 0 7 0;
#X connect 6 0 1 0;
#X connect 7 0 6 1;
#X restore 546 99 pd Fine;
#N canvas 394 235 712 300 Waveforms 0;
#X obj 47 14 inlet;
#X obj 45 251 outlet~;
#N canvas 514 355 450 300 Sine 0;
#X obj 35 27 inlet;
#X obj 35 74 osc~;
#X obj 36 142 outlet~;
#X connect 0 0 1 0;
#X connect 1 0 2 0;
#X restore 47 91 pd Sine;
#X obj 95 62 phasor~;
#N canvas 555 384 450 300 Saw 0;
#X obj 36 25 inlet~;
#X obj 36 157 outlet~;
#X obj 35 77 expr~ $v1 * 2 - 1;
#X connect 0 0 2 0;
#X connect 2 0 1 0;
#X restore 95 91 pd Saw;
#N canvas 555 384 450 300 Square 0;
#X obj 36 25 inlet~;
#X obj 38 157 outlet~;
#X obj 37 78 expr~ ($v1 > 0.5) * 2 - 1;
#X connect 0 0 2 0;
#X connect 2 0 1 0;
#X restore 137 91 pd Square;
#N canvas 555 384 450 300 WidePulse 0;
#X obj 36 25 inlet~;
#X obj 36 157 outlet~;
#X obj 35 79 expr~ ($v1 > 0.25) * 2 - 1;
#X connect 0 0 2 0;
#X connect 2 0 1 0;
#X restore 197 91 pd WidePulse;
#N canvas 503 441 450 300 Tri-Saw 0;
#X obj 34 25 inlet~;
#X obj 33 155 outlet~;
#X obj 33 57 expr~ $v1 * 3 - 1;
#X obj 32 95 expr~ if($v1 > 1 \, (-$v1+1) \, $v1);
#X connect 0 0 2 0;
#X connect 2 0 3 0;
#X connect 3 0 1 0;
#X restore 275 91 pd Tri-Saw;
#N canvas 555 384 450 300 Triangle 0;
#X obj 36 25 inlet~;
#X obj 36 157 outlet~;
#X obj 35 81 expr~ (min($v1 \, 1 - $v1) - 0.25) * 4;
#X connect 0 0 2 0;
#X connect 2 0 1 0;
#X restore 341 91 pd Triangle;
#N canvas 122 298 1052 478 Router 0;
#X obj 19 20 inlet~ Sine;
#X obj 91 20 inlet~ Saw;
#X obj 157 20 inlet~ Square;
#X obj 241 20 inlet~ WidePulse;
#X obj 343 20 inlet~ Tri-Saw;
#X obj 433 20 inlet~ Triangle;
#X obj 18 291 *~;
#X obj 92 291 *~;
#X obj 157 290 *~;
#X obj 242 290 *~;
#X obj 342 289 *~;
#X obj 433 292 *~;
#X obj 667 24 r OSC1WaveformOut;
#X obj 667 55 sel 0 1 2 3 4 5;
#X msg 667 89 1 0 0 0 0 0;
#X msg 759 88 0 1 0 0 0 0;
#X msg 667 110 0 0 1 0 0 0;
#X msg 759 109 0 0 0 1 0 0;
#X msg 667 132 0 0 0 0 1 0;
#X msg 759 131 0 0 0 0 0 1;
#X obj 667 167 unpack f f f f f f;
#X obj 667 200 sig~;
#X obj 697 200 sig~;
#X obj 727 200 sig~;
#X obj 757 200 sig~;
#X obj 787 200 sig~;
#X obj 817 200 sig~;
#X obj 667 228 lop~ 80;
#X obj 696 252 lop~ 80;
#X obj 727 226 lop~ 80;
#X obj 756 250 lop~ 80;
#X obj 787 226 lop~ 80;
#X obj 816 250 lop~ 80;
#X obj 17 355 outlet~;
#X connect 0 0 6 0;
#X connect 1 0 7 0;
#X connect 2 0 8 0;
#X connect 3 0 9 0;
#X connect 4 0 10 0;
#X connect 5 0 11 0;
#X connect 6 0 33 0;
#X connect 7 0 33 0;
#X connect 8 0 33 0;
#X connect 9 0 33 0;
#X connect 10 0 33 0;
#X connect 11 0 33 0;
#X connect 12 0 13 0;
#X connect 13 0 14 0;
#X connect 13 1 15 0;
#X connect 13 2 16 0;
#X connect 13 3 17 0;
#X connect 13 4 18 0;
#X connect 13 5 19 0;
#X connect 14 0 20 0;
#X connect 15 0 20 0;
#X connect 16 0 20 0;
#X connect 17 0 20 0;
#X connect 18 0 20 0;
#X connect 19 0 20 0;
#X connect 20 0 21 0;
#X connect 20 1 22 0;
#X connect 20 2 23 0;
#X connect 20 3 24 0;
#X connect 20 4 25 0;
#X connect 20 5 26 0;
#X connect 21 0 27 0;
#X connect 22 0 28 0;
#X connect 23 0 29 0;
#X connect 24 0 30 0;
#X connect 25 0 31 0;
#X connect 26 0 32 0;
#X connect 27 0 6 1;
#X connect 28 0 7 1;
#X connect 29 0 8 1;
#X connect 30 0 9 1;
#X connect 31 0 10 1;
#X connect 32 0 11 1;
#X restore 46 147 pd Router;
#X connect 0 0 2 0;
#X connect 0 0 3 0;
#X connect 2 0 9 0;
#X connect 3 0 4 0;
#X connect 3 0 5 0;
#X connect 3 0 6 0;
#X connect 3 0 7 0;
#X connect 3 0 8 0;
#X connect 4 0 9 1;
#X connect 5 0 9 2;
#X connect 6 0 9 3;
#X connect 7 0 9 4;
#X connect 8 0 9 5;
#X connect 9 0 1 0;
#X restore 546 133 pd Waveforms;
#X obj 545 170 *~;
#X obj 545 199 *~;
#X obj 627 176 r OSC1Mute;
#X obj 544 258 s~ OSC1MasterOut;
#X obj 326 16 loadbang;
#X msg 326 53 0;
#X obj 376 52 s OSC1WaveformIn;
#X obj 375 81 s OSC1RangeIn;
#X obj 371 110 s OSC1FineIn;
#X msg 325 82 1;
#X obj 759 21 r OSC1TuneOut;
#X msg 759 55 0;
#X obj 759 93 s OSC1FineIn;
#X text 266 117 OSC 1;
#X obj 627 208 r OSC1VolOut;
#X connect 0 0 21 0;
#X connect 21 0 22 0;
#X connect 22 0 23 0;
#X connect 23 0 24 0;
#X connect 24 0 25 0;
#X connect 25 0 27 0;
#X connect 26 0 24 1;
#X connect 28 0 29 0;
#X connect 28 0 33 0;
#X connect 29 0 32 0;
#X connect 29 0 30 0;
#X connect 33 0 31 0;
#X connect 34 0 35 0;
#X connect 35 0 36 0;
#X connect 38 0 25 1;
#X coords 0 -1 1 1 300 130 2 10 10;
#X restore 11 13 pd OSC1;
#N canvas 0 0 1596 827 OSC1 0;
#X obj 546 30 r Freq;
#X obj 28 34 vradio 15 1 0 6 OSC2WaveformOut OSC2WaveformIn empty 0
-8 0 10 -262144 -1 -1 2;
#X obj 122 34 vradio 15 1 0 6 OSC2RangeOut OSC2RangeIn empty 0 -8 0
10 -262144 -1 -1 0;
#X text 26 13 Waveform;
#X text 123 13 Range;
#X text 49 33 Sine;
#X text 49 48 Saw;
#X text 49 64 Square;
#X text 48 82 Wide Pulse;
#X text 49 97 Tri-Saw;
#X text 50 110 Triangle;
#X text 144 31 / 2;
#X text 143 48 * 1;
#X text 143 64 * 2;
#X text 143 80 * 4;
#X text 143 94 * 8;
#X text 143 111 * 16;
#X obj 215 62 knob 32 32 -0.01 0.01 0 0 OSC2FineOut OSC2FineIn empty
0 -8 0 8 -262144 -1 -1 1550 1;
#X text 215 30 Fine;
#X text 270 33 Tune;
#X obj 276 69 bng 15 250 50 0 OSC2TuneOut OSC2TuneIn empty 17 7 0 10
-262144 -1 -1;
#N canvas 291 222 450 300 Range 0;
#X obj 36 21 inlet;
#X obj 36 193 *;
#X obj 36 252 outlet;
#X obj 157 58 sel 0 1 2 3 4 5;
#X msg 157 95 0.5;
#X msg 184 95 1;
#X msg 211 95 2;
#X msg 238 95 4;
#X msg 265 95 8;
#X msg 292 95 16;
#X obj 157 145 t b f;
#X obj 157 21 r OSC2RangeOut;
#X connect 0 0 1 0;
#X connect 1 0 2 0;
#X connect 3 0 4 0;
#X connect 3 1 5 0;
#X connect 3 2 6 0;
#X connect 3 3 7 0;
#X connect 3 4 8 0;
#X connect 3 5 9 0;
#X connect 4 0 10 0;
#X connect 5 0 10 0;
#X connect 6 0 10 0;
#X connect 7 0 10 0;
#X connect 8 0 10 0;
#X connect 9 0 10 0;
#X connect 10 0 1 0;
#X connect 10 1 1 1;
#X connect 11 0 3 0;
#X restore 546 63 pd Range;
#N canvas 492 174 450 300 Fine 0;
#X obj 38 33 inlet;
#X obj 38 249 outlet;
#X obj 153 78 t b f;
#X floatatom 38 81 5 0 0 0 - - -;
#X obj 92 131 *;
#X obj 38 213 +;
#X floatatom 92 172 5 0 0 0 - - -;
#X obj 153 39 r OSC2FineOut;
#X connect 0 0 3 0;
#X connect 2 0 4 0;
#X connect 2 0 5 0;
#X connect 2 1 4 1;
#X connect 3 0 4 0;
#X connect 3 0 5 0;
#X connect 4 0 6 0;
#X connect 5 0 1 0;
#X connect 6 0 5 1;
#X connect 7 0 2 0;
#X restore 546 99 pd Fine;
#N canvas 394 235 712 300 Waveforms 0;
#X obj 47 14 inlet;
#X obj 45 251 outlet~;
#N canvas 514 355 450 300 Sine 0;
#X obj 35 27 inlet;
#X obj 35 74 osc~;
#X obj 36 142 outlet~;
#X connect 0 0 1 0;
#X connect 1 0 2 0;
#X restore 47 91 pd Sine;
#X obj 95 62 phasor~;
#N canvas 555 384 450 300 Saw 0;
#X obj 36 25 inlet~;
#X obj 36 157 outlet~;
#X obj 35 77 expr~ $v1 * 2 - 1;
#X connect 0 0 2 0;
#X connect 2 0 1 0;
#X restore 95 91 pd Saw;
#N canvas 555 384 450 300 Square 0;
#X obj 36 25 inlet~;
#X obj 38 157 outlet~;
#X obj 37 78 expr~ ($v1 > 0.5) * 2 - 1;
#X connect 0 0 2 0;
#X connect 2 0 1 0;
#X restore 137 91 pd Square;
#N canvas 555 384 450 300 WidePulse 0;
#X obj 36 25 inlet~;
#X obj 36 157 outlet~;
#X obj 35 79 expr~ ($v1 > 0.25) * 2 - 1;
#X connect 0 0 2 0;
#X connect 2 0 1 0;
#X restore 197 91 pd WidePulse;
#N canvas 503 441 450 300 Tri-Saw 0;
#X obj 34 25 inlet~;
#X obj 33 155 outlet~;
#X obj 33 57 expr~ $v1 * 3 - 1;
#X obj 32 95 expr~ if($v1 > 1 \, (-$v1+1) \, $v1);
#X connect 0 0 2 0;
#X connect 2 0 3 0;
#X connect 3 0 1 0;
#X restore 275 91 pd Tri-Saw;
#N canvas 555 384 450 300 Triangle 0;
#X obj 36 25 inlet~;
#X obj 36 157 outlet~;
#X obj 35 81 expr~ (min($v1 \, 1 - $v1) - 0.25) * 4;
#X connect 0 0 2 0;
#X connect 2 0 1 0;
#X restore 341 91 pd Triangle;
#N canvas 122 298 1052 478 Router 0;
#X obj 19 20 inlet~ Sine;
#X obj 91 20 inlet~ Saw;
#X obj 157 20 inlet~ Square;
#X obj 241 20 inlet~ WidePulse;
#X obj 343 20 inlet~ Tri-Saw;
#X obj 433 20 inlet~ Triangle;
#X obj 18 291 *~;
#X obj 92 291 *~;
#X obj 157 290 *~;
#X obj 242 290 *~;
#X obj 342 289 *~;
#X obj 433 292 *~;
#X obj 667 55 sel 0 1 2 3 4 5;
#X msg 667 89 1 0 0 0 0 0;
#X msg 759 88 0 1 0 0 0 0;
#X msg 667 110 0 0 1 0 0 0;
#X msg 759 109 0 0 0 1 0 0;
#X msg 667 132 0 0 0 0 1 0;
#X msg 759 131 0 0 0 0 0 1;
#X obj 667 167 unpack f f f f f f;
#X obj 667 200 sig~;
#X obj 697 200 sig~;
#X obj 727 200 sig~;
#X obj 757 200 sig~;
#X obj 787 200 sig~;
#X obj 817 200 sig~;
#X obj 667 228 lop~ 80;
#X obj 696 252 lop~ 80;
#X obj 727 226 lop~ 80;
#X obj 756 250 lop~ 80;
#X obj 787 226 lop~ 80;
#X obj 816 250 lop~ 80;
#X obj 17 355 outlet~;
#X obj 667 24 r OSC2WaveformOut;
#X connect 0 0 6 0;
#X connect 1 0 7 0;
#X connect 2 0 8 0;
#X connect 3 0 9 0;
#X connect 4 0 10 0;
#X connect 5 0 11 0;
#X connect 6 0 32 0;
#X connect 7 0 32 0;
#X connect 8 0 32 0;
#X connect 9 0 32 0;
#X connect 10 0 32 0;
#X connect 11 0 32 0;
#X connect 12 0 13 0;
#X connect 12 1 14 0;
#X connect 12 2 15 0;
#X connect 12 3 16 0;
#X connect 12 4 17 0;
#X connect 12 5 18 0;
#X connect 13 0 19 0;
#X connect 14 0 19 0;
#X connect 15 0 19 0;
#X connect 16 0 19 0;
#X connect 17 0 19 0;
#X connect 18 0 19 0;
#X connect 19 0 20 0;
#X connect 19 1 21 0;
#X connect 19 2 22 0;
#X connect 19 3 23 0;
#X connect 19 4 24 0;
#X connect 19 5 25 0;
#X connect 20 0 26 0;
#X connect 21 0 27 0;
#X connect 22 0 28 0;
#X connect 23 0 29 0;
#X connect 24 0 30 0;
#X connect 25 0 31 0;
#X connect 26 0 6 1;
#X connect 27 0 7 1;
#X connect 28 0 8 1;
#X connect 29 0 9 1;
#X connect 30 0 10 1;
#X connect 31 0 11 1;
#X connect 33 0 12 0;
#X restore 46 147 pd Router;
#X connect 0 0 2 0;
#X connect 0 0 3 0;
#X connect 2 0 9 0;
#X connect 3 0 4 0;
#X connect 3 0 5 0;
#X connect 3 0 6 0;
#X connect 3 0 7 0;
#X connect 3 0 8 0;
#X connect 4 0 9 1;
#X connect 5 0 9 2;
#X connect 6 0 9 3;
#X connect 7 0 9 4;
#X connect 8 0 9 5;
#X connect 9 0 1 0;
#X restore 546 133 pd Waveforms;
#X obj 545 170 *~;
#X obj 545 199 *~;
#X obj 326 16 loadbang;
#X msg 326 53 0;
#X msg 325 82 1;
#X msg 759 55 0;
#X text 269 118 OSC 2;
#X obj 628 176 r OSC2Mute;
#X obj 544 258 s~ OSC2MasterOut;
#X obj 376 52 s OSC2WaveformIn;
#X obj 375 81 s OSC2RangeIn;
#X obj 371 110 s OSC2FineIn;
#X obj 759 21 r OSC2TuneOut;
#X obj 759 93 s OSC2FineIn;
#X obj 627 208 r OSC2VolOut;
#X connect 0 0 21 0;
#X connect 21 0 22 0;
#X connect 22 0 23 0;
#X connect 23 0 24 0;
#X connect 24 0 25 0;
#X connect 25 0 32 0;
#X connect 26 0 27 0;
#X connect 26 0 28 0;
#X connect 27 0 33 0;
#X connect 27 0 35 0;
#X connect 28 0 34 0;
#X connect 29 0 37 0;
#X connect 31 0 24 1;
#X connect 36 0 29 0;
#X connect 38 0 25 1;
#X coords 0 -1 1 1 300 130 2 10 10;
#X restore 11 150 pd OSC1;
#N canvas 0 0 1596 827 OSC1 0;
#X obj 546 30 r Freq;
#X obj 28 34 vradio 15 1 0 6 OSC3WaveformOut OSC3WaveformIn empty 0
-8 0 10 -262144 -1 -1 1;
#X obj 122 34 vradio 15 1 0 6 OSC3RangeOut OSC3RangeIn empty 0 -8 0
10 -262144 -1 -1 1;
#X text 26 13 Waveform;
#X text 123 13 Range;
#X text 49 33 Sine;
#X text 49 48 Saw;
#X text 49 64 Square;
#X text 48 82 Wide Pulse;
#X text 49 97 Tri-Saw;
#X text 50 110 Triangle;
#X text 144 31 / 2;
#X text 143 48 * 1;
#X text 143 64 * 2;
#X text 143 80 * 4;
#X text 143 94 * 8;
#X text 143 111 * 16;
#X obj 215 62 knob 32 32 -0.01 0.01 0 0 OSC3FineOut OSC3FineIn empty
0 -8 0 8 -262144 -1 -1 1550 1;
#X text 215 30 Fine;
#X text 270 33 Tune;
#X obj 276 69 bng 15 250 50 0 OSC3TuneOut OSC3TuneIn empty 17 7 0 10
-262144 -1 -1;
#N canvas 291 222 450 300 Range 0;
#X obj 36 21 inlet;
#X obj 36 193 *;
#X obj 36 252 outlet;
#X obj 157 58 sel 0 1 2 3 4 5;
#X msg 157 95 0.5;
#X msg 184 95 1;
#X msg 211 95 2;
#X msg 238 95 4;
#X msg 265 95 8;
#X msg 292 95 16;
#X obj 157 145 t b f;
#X obj 157 21 r OSC3RangeOut;
#X connect 0 0 1 0;
#X connect 1 0 2 0;
#X connect 3 0 4 0;
#X connect 3 1 5 0;
#X connect 3 2 6 0;
#X connect 3 3 7 0;
#X connect 3 4 8 0;
#X connect 3 5 9 0;
#X connect 4 0 10 0;
#X connect 5 0 10 0;
#X connect 6 0 10 0;
#X connect 7 0 10 0;
#X connect 8 0 10 0;
#X connect 9 0 10 0;
#X connect 10 0 1 0;
#X connect 10 1 1 1;
#X connect 11 0 3 0;
#X restore 546 63 pd Range;
#N canvas 492 174 450 300 Fine 0;
#X obj 38 33 inlet;
#X obj 38 249 outlet;
#X obj 153 78 t b f;
#X floatatom 38 81 5 0 0 0 - - -;
#X obj 92 131 *;
#X obj 38 213 +;
#X floatatom 92 172 5 0 0 0 - - -;
#X obj 153 39 r OSC3FineOut;
#X connect 0 0 3 0;
#X connect 2 0 4 0;
#X connect 2 0 5 0;
#X connect 2 1 4 1;
#X connect 3 0 4 0;
#X connect 3 0 5 0;
#X connect 4 0 6 0;
#X connect 5 0 1 0;
#X connect 6 0 5 1;
#X connect 7 0 2 0;
#X restore 546 99 pd Fine;
#N canvas 394 235 712 300 Waveforms 0;
#X obj 47 14 inlet;
#X obj 45 251 outlet~;
#N canvas 514 355 450 300 Sine 0;
#X obj 35 27 inlet;
#X obj 35 74 osc~;
#X obj 36 142 outlet~;
#X connect 0 0 1 0;
#X connect 1 0 2 0;
#X restore 47 91 pd Sine;
#X obj 95 62 phasor~;
#N canvas 555 384 450 300 Saw 0;
#X obj 36 25 inlet~;
#X obj 36 157 outlet~;
#X obj 35 77 expr~ $v1 * 2 - 1;
#X connect 0 0 2 0;
#X connect 2 0 1 0;
#X restore 95 91 pd Saw;
#N canvas 555 384 450 300 Square 0;
#X obj 36 25 inlet~;
#X obj 38 157 outlet~;
#X obj 37 78 expr~ ($v1 > 0.5) * 2 - 1;
#X connect 0 0 2 0;
#X connect 2 0 1 0;
#X restore 137 91 pd Square;
#N canvas 555 384 450 300 WidePulse 0;
#X obj 36 25 inlet~;
#X obj 36 157 outlet~;
#X obj 35 79 expr~ ($v1 > 0.25) * 2 - 1;
#X connect 0 0 2 0;
#X connect 2 0 1 0;
#X restore 197 91 pd WidePulse;
#N canvas 503 441 450 300 Tri-Saw 0;
#X obj 34 25 inlet~;
#X obj 33 155 outlet~;
#X obj 33 57 expr~ $v1 * 3 - 1;
#X obj 32 95 expr~ if($v1 > 1 \, (-$v1+1) \, $v1);
#X connect 0 0 2 0;
#X connect 2 0 3 0;
#X connect 3 0 1 0;
#X restore 275 91 pd Tri-Saw;
#N canvas 555 384 450 300 Triangle 0;
#X obj 36 25 inlet~;
#X obj 36 157 outlet~;
#X obj 35 81 expr~ (min($v1 \, 1 - $v1) - 0.25) * 4;
#X connect 0 0 2 0;
#X connect 2 0 1 0;
#X restore 341 91 pd Triangle;
#N canvas 122 298 1052 478 Router 0;
#X obj 19 20 inlet~ Sine;
#X obj 91 20 inlet~ Saw;
#X obj 157 20 inlet~ Square;
#X obj 241 20 inlet~ WidePulse;
#X obj 343 20 inlet~ Tri-Saw;
#X obj 433 20 inlet~ Triangle;
#X obj 18 291 *~;
#X obj 92 291 *~;
#X obj 157 290 *~;
#X obj 242 290 *~;
#X obj 342 289 *~;
#X obj 433 292 *~;
#X obj 667 55 sel 0 1 2 3 4 5;
#X msg 667 89 1 0 0 0 0 0;
#X msg 759 88 0 1 0 0 0 0;
#X msg 667 110 0 0 1 0 0 0;
#X msg 759 109 0 0 0 1 0 0;
#X msg 667 132 0 0 0 0 1 0;
#X msg 759 131 0 0 0 0 0 1;
#X obj 667 167 unpack f f f f f f;
#X obj 667 200 sig~;
#X obj 697 200 sig~;
#X obj 727 200 sig~;
#X obj 757 200 sig~;
#X obj 787 200 sig~;
#X obj 817 200 sig~;
#X obj 667 228 lop~ 80;
#X obj 696 252 lop~ 80;
#X obj 727 226 lop~ 80;
#X obj 756 250 lop~ 80;
#X obj 787 226 lop~ 80;
#X obj 816 250 lop~ 80;
#X obj 17 355 outlet~;
#X obj 667 24 r OSC3WaveformOut;
#X connect 0 0 6 0;
#X connect 1 0 7 0;
#X connect 2 0 8 0;
#X connect 3 0 9 0;
#X connect 4 0 10 0;
#X connect 5 0 11 0;
#X connect 6 0 32 0;
#X connect 7 0 32 0;
#X connect 8 0 32 0;
#X connect 9 0 32 0;
#X connect 10 0 32 0;
#X connect 11 0 32 0;
#X connect 12 0 13 0;
#X connect 12 1 14 0;
#X connect 12 2 15 0;
#X connect 12 3 16 0;
#X connect 12 4 17 0;
#X connect 12 5 18 0;
#X connect 13 0 19 0;
#X connect 14 0 19 0;
#X connect 15 0 19 0;
#X connect 16 0 19 0;
#X connect 17 0 19 0;
#X connect 18 0 19 0;
#X connect 19 0 20 0;
#X connect 19 1 21 0;
#X connect 19 2 22 0;
#X connect 19 3 23 0;
#X connect 19 4 24 0;
#X connect 19 5 25 0;
#X connect 20 0 26 0;
#X connect 21 0 27 0;
#X connect 22 0 28 0;
#X connect 23 0 29 0;
#X connect 24 0 30 0;
#X connect 25 0 31 0;
#X connect 26 0 6 1;
#X connect 27 0 7 1;
#X connect 28 0 8 1;
#X connect 29 0 9 1;
#X connect 30 0 10 1;
#X connect 31 0 11 1;
#X connect 33 0 12 0;
#X restore 46 147 pd Router;
#X connect 0 0 2 0;
#X connect 0 0 3 0;
#X connect 2 0 9 0;
#X connect 3 0 4 0;
#X connect 3 0 5 0;
#X connect 3 0 6 0;
#X connect 3 0 7 0;
#X connect 3 0 8 0;
#X connect 4 0 9 1;
#X connect 5 0 9 2;
#X connect 6 0 9 3;
#X connect 7 0 9 4;
#X connect 8 0 9 5;
#X connect 9 0 1 0;
#X restore 546 133 pd Waveforms;
#X obj 545 170 *~;
#X obj 545 199 *~;
#X obj 326 16 loadbang;
#X msg 326 53 0;
#X msg 325 82 1;
#X msg 759 55 0;
#X text 262 116 OSC 3;
#X obj 376 52 s OSC3WaveformIn;
#X obj 375 81 s OSC3RangeIn;
#X obj 371 110 s OSC3FineIn;
#X obj 759 21 r OSC3TuneOut;
#X obj 759 93 s OSC3FineIn;
#X obj 627 176 r OSC3Mute;
#X obj 544 258 s~ OSC3MasterOut;
#X obj 627 208 r OSC3VolOut;
#X connect 0 0 21 0;
#X connect 21 0 22 0;
#X connect 22 0 23 0;
#X connect 23 0 24 0;
#X connect 24 0 25 0;
#X connect 25 0 37 0;
#X connect 26 0 27 0;
#X connect 26 0 28 0;
#X connect 27 0 31 0;
#X connect 27 0 33 0;
#X connect 28 0 32 0;
#X connect 29 0 35 0;
#X connect 34 0 29 0;
#X connect 36 0 24 1;
#X connect 38 0 25 1;
#X coords 0 -1 1 1 300 130 2 10 10;
#X restore 11 286 pd OSC1;
#N canvas 677 0 450 818 Mixer 0;
#X obj 35 48 knob 32 32 0 1 0 0 OSC1VolOut OSC1VolIn empty 0 -8 0 8
-262144 -1 -1 1550 1;
#X obj 36 134 knob 32 32 0 1 0 0 OSC2VolOut OSC2VolIn empty 0 -8 0
8 -262144 -1 -1 1550 1;
#X obj 38 226 knob 32 32 0 1 0 0 OSC3VolOut OSC3VolIn empty 0 -8 0
8 -262144 -1 -1 1550 1;
#X obj 38 323 knob 32 32 0 5 0 0 MasterVolOut MasterVolIn empty 0 -8
0 8 -262144 -1 -1 500 1;
#X text 38 22 OSC 1 Vol;
#X text 38 109 OSC 2 Vol;
#X text 39 199 OSC 3 Vol;
#X text 37 293 Master Vol;
#X obj 116 237 tgl 15 0 OSC3MuteOut OSC3MuteIn empty 17 7 0 10 -262144
-1 -1 0 1;
#X obj 116 140 tgl 15 0 OSC2MuteOut OSC2MuteIn empty 17 7 0 10 -262144
-1 -1 0 1;
#X obj 116 53 tgl 15 0 OSC1MuteOut OSC1MuteIn empty 17 7 0 10 -262144
-1 -1 0 1;
#X text 114 29 Mute;
#X text 114 115 Mute;
#X text 115 214 Mute;
#N canvas 1121 162 450 300 OSC1Mute 0;
#X obj 71 28 r OSC1MuteOut;
#X obj 71 65 hradio 15 1 0 2 empty empty empty 0 -8 0 10 -262144 -1
-1 0;
#X obj 71 97 sel 0 1;
#X obj 71 226 s OSC1Mute;
#X msg 71 141 1;
#X msg 127 141 0;
#X connect 0 0 1 0;
#X connect 1 0 2 0;
#X connect 2 0 4 0;
#X connect 2 1 5 0;
#X connect 4 0 3 0;
#X connect 5 0 3 0;
#X restore 364 8 pd OSC1Mute;
#N canvas 1121 162 450 300 OSC2Mute 0;
#X obj 71 65 hradio 15 1 0 2 empty empty empty 0 -8 0 10 -262144 -1
-1 0;
#X obj 71 97 sel 0 1;
#X msg 71 141 1;
#X msg 127 141 0;
#X obj 71 28 r OSC2MuteOut;
#X obj 71 226 s OSC2Mute;
#X connect 0 0 1 0;
#X connect 1 0 2 0;
#X connect 1 1 3 0;
#X connect 2 0 5 0;
#X connect 3 0 5 0;
#X connect 4 0 0 0;
#X restore 362 33 pd OSC2Mute;
#N canvas 1121 162 450 300 OSC3Mute 0;
#X obj 71 65 hradio 15 1 0 2 empty empty empty 0 -8 0 10 -262144 -1
-1 0;
#X obj 71 97 sel 0 1;
#X msg 71 141 1;
#X msg 127 141 0;
#X obj 71 28 r OSC3MuteOut;
#X obj 71 226 s OSC3Mute;
#X connect 0 0 1 0;
#X connect 1 0 2 0;
#X connect 1 1 3 0;
#X connect 2 0 5 0;
#X connect 3 0 5 0;
#X connect 4 0 0 0;
#X restore 362 59 pd OSC3Mute;
#X obj 233 28 loadbang;
#X msg 233 70 0;
#X msg 271 71 1;
#X obj 234 139 s OSC1MuteIn;
#X obj 237 168 s OSC2MuteIn;
#X obj 233 194 s OSC3MuteIn;
#X obj 235 238 s OSC1VolIn;
#X obj 236 312 s MasterVolIn;
#X obj 235 265 s OSC2VolIn;
#X obj 237 288 s OSC3VolIn;
#X msg 350 153 0.5;
#X msg 355 190 2.5;
#X connect 17 0 18 0;
#X connect 17 0 19 0;
#X connect 17 0 27 0;
#X connect 17 0 28 0;
#X connect 18 0 20 0;
#X connect 19 0 21 0;
#X connect 19 0 22 0;
#X connect 27 0 23 0;
#X connect 27 0 25 0;
#X connect 27 0 26 0;
#X connect 28 0 24 0;
#X coords 0 -1 1 1 150 403 2 10 10;
#X restore 315 13 pd Mixer;
#N canvas 0 0 1600 827 ADSR 0;
#X obj 40 45 knob 32 32 10 3000 0 0 ADSRAttackOut ADSRAttackIn empty
0 -8 0 8 -262144 -1 -1 3100 1;
#X obj 40 132 knob 32 32 10 1000 0 0 ADSRDecayOut ADSRDecayIn empty
0 -8 0 8 -262144 -1 -1 3100 1;
#X obj 39 223 knob 32 32 0 1 0 0 ADSRSustainOut ADSRSustainIn empty
0 -8 0 8 -262144 -1 -1 970 1;
#X obj 38 324 knob 32 32 10 1000 0 0 ADSRReleaseOut ADSRReleaseIn empty
0 -8 0 8 -262144 -1 -1 3100 1;
#X text 39 19 Attack;
#X text 41 104 Decay;
#X text 34 196 Sustain;
#X text 34 298 Release;
#X obj 145 23 loadbang;
#X text 24 78 10 ms 3 sec;
#X text 23 168 10 ms 1 sec;
#X text 27 258 1 10;
#X text 25 362 10 ms 1 sec;
#X obj 145 94 s ADSRAttackIn;
#X obj 183 112 s ADSRDecayIn;
#X obj 223 130 s ADSRSustainIn;
#X obj 262 148 s ADSRReleaseIn;
#X msg 145 61 150;
#X msg 183 61 250;
#X msg 223 61 0.7;
#X msg 262 62 500;
#X obj 468 28 r ADSRAttackOut;
#X obj 491 46 r ADSRDecayOut;
#X obj 514 64 r ADSRSustainOut;
#X obj 445 99 pack f f f f;
#X obj 445 75 r ADSRIn1;
#X msg 445 145 1 \$2 \, \$4 \$3 \$2;
#X obj 445 214 vline~;
#X obj 646 60 r ADSRIn2;
#X obj 691 82 r ADSRReleaseOut;
#X obj 646 107 pack f f;
#X msg 646 149 0 \$2;
#X obj 443 284 s~ ADSROut;
#X connect 8 0 17 0;
#X connect 8 0 18 0;
#X connect 8 0 19 0;
#X connect 8 0 20 0;
#X connect 17 0 13 0;
#X connect 18 0 14 0;
#X connect 19 0 15 0;
#X connect 20 0 16 0;
#X connect 21 0 24 1;
#X connect 22 0 24 2;
#X connect 23 0 24 3;
#X connect 24 0 26 0;
#X connect 25 0 24 0;
#X connect 26 0 27 0;
#X connect 27 0 32 0;
#X connect 28 0 30 0;
#X connect 29 0 30 1;
#X connect 30 0 31 0;
#X connect 31 0 27 0;
#X coords 0 -1 1 1 100 403 2 10 10;
#X restore 468 13 pd ADSR;
#N canvas 651 96 450 300 out 0;
#N canvas 754 222 450 300 In 0;
#X obj 31 32 r~ OSC1MasterOut;
#X obj 31 57 r~ OSC2MasterOut;
#X obj 31 80 r~ OSC3MasterOut;
#X obj 32 184 outlet~;
#X connect 0 0 3 0;
#X connect 1 0 3 0;
#X connect 2 0 3 0;
#X restore 40 40 pd In;
#X obj 41 85 *~;
#X obj 41 121 *~;
#X obj 41 155 *~;
#X obj 111 104 r Velocity;
#X obj 111 69 r~ ADSROut;
#X obj 111 138 r MasterVolOut;
#X obj 40 199 dac~;
#X obj 212 205 tabwrite~ array1;
#X obj 212 175 metro 100;
#X obj 212 145 tgl 15 0 empty empty empty 17 7 0 10 -262144 -1 -1 1
1;
#X connect 0 0 1 0;
#X connect 1 0 2 0;
#X connect 2 0 3 0;
#X connect 3 0 7 0;
#X connect 3 0 7 1;
#X connect 3 0 8 0;
#X connect 4 0 2 1;
#X connect 5 0 1 1;
#X connect 6 0 3 1;
#X connect 9 0 8 0;
#X connect 10 0 9 0;
#X restore 584 51 pd out;
#N canvas 0 0 450 300 (subpatch) 0;
#X array array1 1000 float 3;
#A 0 0 0 0 0 0 0 0 0 0 0 0 0 0 0 0 0 0 0 0 0 0 0 0 0 0 0 0 0 0 0 0
0 0 0 0 0 0 0 0 0 0 0 0 0 0 0 0 0 0 0 0 0 0 0 0 0 0 0 0 0 0 0 0 0 0
0 0 0 0 0 0 0 0 0 0 0 0 0 0 0 0 0 0 0 0 0 0 0 0 0 0 0 0 0 0 0 0 0 0
0 0 0 0 0 0 0 0 0 0 0 0 0 0 0 0 0 0 0 0 0 0 0 0 0 0 0 0 0 0 0 0 0 0
0 0 0 0 0 0 0 0 0 0 0 0 0 0 0 0 0 0 0 0 0 0 0 0 0 0 0 0 0 0 0 0 0 0
0 0 0 0 0 0 0 0 0 0 0 0 0 0 0 0 0 0 0 0 0 0 0 0 0 0 0 0 0 0 0 0 0 0
0 0 0 0 0 0 0 0 0 0 0 0 0 0 0 0 0 0 0 0 0 0 0 0 0 0 0 0 0 0 0 0 0 0
0 0 0 0 0 0 0 0 0 0 0 0 0 0 0 0 0 0 0 0 0 0 0 0 0 0 0 0 0 0 0 0 0 0
0 0 0 0 0 0 0 0 0 0 0 0 0 0 0 0 0 0 0 0 0 0 0 0 0 0 0 0 0 0 0 0 0 0
0 0 0 0 0 0 0 0 0 0 0 0 0 0 0 0 0 0 0 0 0 0 0 0 0 0 0 0 0 0 0 0 0 0
0 0 0 0 0 0 0 0 0 0 0 0 0 0 0 0 0 0 0 0 0 0 0 0 0 0 0 0 0 0 0 0 0 0
0 0 0 0 0 0 0 0 0 0 0 0 0 0 0 0 0 0 0 0 0 0 0 0 0 0 0 0 0 0 0 0 0 0
0 0 0 0 0 0 0 0 0 0 0 0 0 0 0 0 0 0 0 0 0 0 0 0 0 0 0 0 0 0 0 0 0 0
0 0 0 0 0 0 0 0 0 0 0 0 0 0 0 0 0 0 0 0 0 0 0 0 0 0 0 0 0 0 0 0 0 0
0 0 0 0 0 0 0 0 0 0 0 0 0 0 0 0 0 0 0 0 0 0 0 0 0 0 0 0 0 0 0 0 0 0
0 0 0 0 0 0 0 0 0 0 0 0 0 0 0 0 0 0 0 0 0 0 0 0 0 0 0 0 0 0 0 0 0 0
0 0 0 0 0 0 0 0 0 0 0 0 0 0 0 0 0 0 0 0 0 0 0 0 0 0 0 0 0 0 0 0 0 0
0 0 0 0 0 0 0 0 0 0 0 0 0 0 0 0 0 0 0 0 0 0 0 0 0 0 0 0 0 0 0 0 0 0
0 0 0 0 0 0 0 0 0 0 0 0 0 0 0 0 0 0 0 0 0 0 0 0 0 0 0 0 0 0 0 0 0 0
0 0 0 0 0 0 0 0 0 0 0 0 0 0 0 0 0 0 0 0 0 0 0 0 0 0 0 0 0 0 0 0 0 0
0 0 0 0 0 0 0 0 0 0 0 0 0 0 0 0 0 0 0 0 0 0 0 0 0 0 0 0 0 0 0 0 0 0
0 0 0 0 0 0 0 0 0 0 0 0 0 0 0 0 0 0 0 0 0 0 0 0 0 0 0 0 0 0 0 0 0 0
0 0 0 0 0 0 0 0 0 0 0 0 0 0 0 0 0 0 0 0 0 0 0 0 0 0 0 0 0 0 0 0 0 0
0 0 0 0 0 0 0 0 0 0 0 0 0 0 0 0 0 0 0 0 0 0 0 0 0 0 0 0 0 0 0 0 0 0
0 0 0 0 0 0 0 0 0 0 0 0 0 0 0 0 0 0 0 0 0 0 0 0 0 0 0 0 0 0 0 0 0 0
0 0 0 0 0 0 0 0 0 0 0 0 0 0 0 0 0 0 0 0 0 0 0 0 0 0 0 0 0 0 0 0 0 0
0 0 0 0 0 0 0 0 0 0 0 0 0 0 0 0 0 0 0 0 0 0 0 0 0 0 0 0 0 0 0 0 0 0
0 0 0 0 0 0 0 0 0 0 0 0 0 0 0 0 0 0 0 0 0 0 0 0 0 0 0 0 0 0 0 0 0 0
0 0 0 0 0 0 0 0 0 0 0 0 0 0 0 0 0 0 0 0 0 0 0 0 0 0 0 0 0 0 0 0 0 0
0 0 0 0 0 0 0 0 0 0 0 0 0 0 0 0 0;
#X coords 0 1 1000 -1 200 140 1;
#X restore 584 92 graph;
#X obj 595 257 dsp;
#X floatatom 595 296 5 0 0 0 - - -;
#X connect 8 0 9 0;
