#N canvas 466 112 643 561 10;
#X obj 28 114 notein;
#X obj 28 219 route 1 2 3 4 5 6 7;
#X obj 28 137 mtof;
#X floatatom 80 121 5 0 0 0 - - -;
#X floatatom 120 121 5 0 0 0 - - -;
#X floatatom 159 121 5 0 0 0 - - -;
#X floatatom 210 122 5 0 0 0 - - -;
#N canvas 40 220 450 453 osc 0;
#X obj 36 12 inlet;
#X obj 36 140 osc~;
#X floatatom 36 91 5 0 0 0 - - -;
#X obj 35 262 *~;
#X obj 36 300 outlet~;
#N canvas 755 313 450 300 ADSR 0;
#X obj 233 150 pack f f;
#X msg 233 174 0 \$2;
#X obj 135 151 pack f f f f;
#X msg 135 176 1 \$2 \, \$4 \$3 \$2;
#X obj 135 228 vline~;
#X obj 135 121 >= 1;
#X obj 233 91 select 0;
#X obj 114 25 inlet;
#X obj 114 49 unpack f f f f f f;
#X obj 135 258 outlet~;
#X connect 0 0 1 0;
#X connect 1 0 4 0;
#X connect 2 0 3 0;
#X connect 3 0 4 0;
#X connect 4 0 9 0;
#X connect 5 0 2 0;
#X connect 6 0 0 0;
#X connect 7 0 8 0;
#X connect 8 1 5 0;
#X connect 8 1 6 0;
#X connect 8 2 2 1;
#X connect 8 3 2 2;
#X connect 8 4 2 3;
#X connect 8 5 0 1;
#X restore 158 29 pd ADSR;
#X obj 90 98 switch~;
#N canvas 715 298 450 486 switch 0;
#X obj 142 26 inlet;
#X obj 142 306 outlet;
#X obj 142 270 tgl 15 0 empty empty empty 17 7 0 10 -262144 -1 -1 0
1;
#X msg 161 247 0;
#X msg 142 224 1;
#X obj 142 91 f;
#X obj 184 90 + 1;
#X obj 142 64 b;
#X obj 142 142 sel 0 1;
#X obj 142 118 mod 2;
#X obj 161 194 delay;
#X obj 188 26 inlet;
#X connect 0 0 7 0;
#X connect 2 0 1 0;
#X connect 3 0 2 0;
#X connect 4 0 2 0;
#X connect 5 0 6 0;
#X connect 5 0 9 0;
#X connect 6 0 5 1;
#X connect 7 0 5 0;
#X connect 8 0 4 0;
#X connect 8 1 10 0;
#X connect 9 0 8 0;
#X connect 10 0 3 0;
#X connect 11 0 10 1;
#X restore 90 74 pd switch;
#X obj 36 45 unpack f f f f f f;
#N canvas 1082 165 450 300 Velocity 0;
#X obj 142 32 inlet;
#X obj 142 149 outlet;
#X obj 142 120 / 127;
#X obj 142 88 moses 1;
#X floatatom 214 147 5 0 0 0 - - -;
#X connect 0 0 3 0;
#X connect 2 0 1 0;
#X connect 2 0 4 0;
#X connect 3 1 2 0;
#X restore 57 169 pd Velocity;
#X obj 35 207 *~;
#X connect 0 0 8 0;
#X connect 0 0 5 0;
#X connect 1 0 10 0;
#X connect 2 0 1 0;
#X connect 3 0 4 0;
#X connect 5 0 3 1;
#X connect 7 0 6 0;
#X connect 8 0 2 0;
#X connect 8 1 7 0;
#X connect 8 1 9 0;
#X connect 8 5 7 1;
#X connect 9 0 10 1;
#X connect 10 0 3 0;
#X restore 28 258 pd osc;
#X obj 62 397 dac~;
#X obj 62 360 /~ 7;
#X text 78 96 Attack;
#X text 119 96 Decay;
#X text 158 95 Sustain;
#X text 208 94 Release;
#X text 254 121 ms;
#X obj 28 185 pack f f f f f f f;
#X obj 28 157 poly 7;
#N canvas 40 220 450 453 osc 0;
#X obj 36 12 inlet;
#X obj 36 140 osc~;
#X floatatom 36 91 5 0 0 0 - - -;
#X obj 35 262 *~;
#X obj 36 300 outlet~;
#N canvas 755 313 450 300 ADSR 0;
#X obj 233 150 pack f f;
#X msg 233 174 0 \$2;
#X obj 135 151 pack f f f f;
#X msg 135 176 1 \$2 \, \$4 \$3 \$2;
#X obj 135 228 vline~;
#X obj 135 121 >= 1;
#X obj 233 91 select 0;
#X obj 114 25 inlet;
#X obj 114 49 unpack f f f f f f;
#X obj 135 258 outlet~;
#X connect 0 0 1 0;
#X connect 1 0 4 0;
#X connect 2 0 3 0;
#X connect 3 0 4 0;
#X connect 4 0 9 0;
#X connect 5 0 2 0;
#X connect 6 0 0 0;
#X connect 7 0 8 0;
#X connect 8 1 5 0;
#X connect 8 1 6 0;
#X connect 8 2 2 1;
#X connect 8 3 2 2;
#X connect 8 4 2 3;
#X connect 8 5 0 1;
#X restore 158 29 pd ADSR;
#X obj 90 98 switch~;
#N canvas 715 298 450 486 switch 0;
#X obj 142 26 inlet;
#X obj 142 306 outlet;
#X obj 142 270 tgl 15 0 empty empty empty 17 7 0 10 -262144 -1 -1 0
1;
#X msg 161 247 0;
#X msg 142 224 1;
#X obj 142 91 f;
#X obj 184 90 + 1;
#X obj 142 64 b;
#X obj 142 142 sel 0 1;
#X obj 142 118 mod 2;
#X obj 161 194 delay;
#X obj 188 26 inlet;
#X connect 0 0 7 0;
#X connect 2 0 1 0;
#X connect 3 0 2 0;
#X connect 4 0 2 0;
#X connect 5 0 6 0;
#X connect 5 0 9 0;
#X connect 6 0 5 1;
#X connect 7 0 5 0;
#X connect 8 0 4 0;
#X connect 8 1 10 0;
#X connect 9 0 8 0;
#X connect 10 0 3 0;
#X connect 11 0 10 1;
#X restore 90 74 pd switch;
#X obj 36 45 unpack f f f f f f;
#N canvas 1082 165 450 300 Velocity 0;
#X obj 142 32 inlet;
#X obj 142 149 outlet;
#X obj 142 120 / 127;
#X obj 142 88 moses 1;
#X floatatom 214 147 5 0 0 0 - - -;
#X connect 0 0 3 0;
#X connect 2 0 1 0;
#X connect 2 0 4 0;
#X connect 3 1 2 0;
#X restore 57 169 pd Velocity;
#X obj 35 207 *~;
#X connect 0 0 8 0;
#X connect 0 0 5 0;
#X connect 1 0 10 0;
#X connect 2 0 1 0;
#X connect 3 0 4 0;
#X connect 5 0 3 1;
#X connect 7 0 6 0;
#X connect 8 0 2 0;
#X connect 8 1 7 0;
#X connect 8 1 9 0;
#X connect 8 5 7 1;
#X connect 9 0 10 1;
#X connect 10 0 3 0;
#X restore 43 276 pd osc;
#N canvas 40 220 450 453 osc 0;
#X obj 36 12 inlet;
#X obj 36 140 osc~;
#X floatatom 36 91 5 0 0 0 - - -;
#X obj 35 262 *~;
#X obj 36 300 outlet~;
#N canvas 755 313 450 300 ADSR 0;
#X obj 233 150 pack f f;
#X msg 233 174 0 \$2;
#X obj 135 151 pack f f f f;
#X msg 135 176 1 \$2 \, \$4 \$3 \$2;
#X obj 135 228 vline~;
#X obj 135 121 >= 1;
#X obj 233 91 select 0;
#X obj 114 25 inlet;
#X obj 114 49 unpack f f f f f f;
#X obj 135 258 outlet~;
#X connect 0 0 1 0;
#X connect 1 0 4 0;
#X connect 2 0 3 0;
#X connect 3 0 4 0;
#X connect 4 0 9 0;
#X connect 5 0 2 0;
#X connect 6 0 0 0;
#X connect 7 0 8 0;
#X connect 8 1 5 0;
#X connect 8 1 6 0;
#X connect 8 2 2 1;
#X connect 8 3 2 2;
#X connect 8 4 2 3;
#X connect 8 5 0 1;
#X restore 158 29 pd ADSR;
#X obj 90 98 switch~;
#N canvas 715 298 450 486 switch 0;
#X obj 142 26 inlet;
#X obj 142 306 outlet;
#X obj 142 270 tgl 15 0 empty empty empty 17 7 0 10 -262144 -1 -1 0
1;
#X msg 161 247 0;
#X msg 142 224 1;
#X obj 142 91 f;
#X obj 184 90 + 1;
#X obj 142 64 b;
#X obj 142 142 sel 0 1;
#X obj 142 118 mod 2;
#X obj 161 194 delay;
#X obj 188 26 inlet;
#X connect 0 0 7 0;
#X connect 2 0 1 0;
#X connect 3 0 2 0;
#X connect 4 0 2 0;
#X connect 5 0 6 0;
#X connect 5 0 9 0;
#X connect 6 0 5 1;
#X connect 7 0 5 0;
#X connect 8 0 4 0;
#X connect 8 1 10 0;
#X connect 9 0 8 0;
#X connect 10 0 3 0;
#X connect 11 0 10 1;
#X restore 90 74 pd switch;
#X obj 36 45 unpack f f f f f f;
#N canvas 1082 165 450 300 Velocity 0;
#X obj 142 32 inlet;
#X obj 142 149 outlet;
#X obj 142 120 / 127;
#X obj 142 88 moses 1;
#X floatatom 214 147 5 0 0 0 - - -;
#X connect 0 0 3 0;
#X connect 2 0 1 0;
#X connect 2 0 4 0;
#X connect 3 1 2 0;
#X restore 57 169 pd Velocity;
#X obj 35 207 *~;
#X connect 0 0 8 0;
#X connect 0 0 5 0;
#X connect 1 0 10 0;
#X connect 2 0 1 0;
#X connect 3 0 4 0;
#X connect 5 0 3 1;
#X connect 7 0 6 0;
#X connect 8 0 2 0;
#X connect 8 1 7 0;
#X connect 8 1 9 0;
#X connect 8 5 7 1;
#X connect 9 0 10 1;
#X connect 10 0 3 0;
#X restore 59 294 pd osc;
#N canvas 40 220 450 453 osc 0;
#X obj 36 12 inlet;
#X obj 36 140 osc~;
#X floatatom 36 91 5 0 0 0 - - -;
#X obj 35 262 *~;
#X obj 36 300 outlet~;
#N canvas 755 313 450 300 ADSR 0;
#X obj 233 150 pack f f;
#X msg 233 174 0 \$2;
#X obj 135 151 pack f f f f;
#X msg 135 176 1 \$2 \, \$4 \$3 \$2;
#X obj 135 228 vline~;
#X obj 135 121 >= 1;
#X obj 233 91 select 0;
#X obj 114 25 inlet;
#X obj 114 49 unpack f f f f f f;
#X obj 135 258 outlet~;
#X connect 0 0 1 0;
#X connect 1 0 4 0;
#X connect 2 0 3 0;
#X connect 3 0 4 0;
#X connect 4 0 9 0;
#X connect 5 0 2 0;
#X connect 6 0 0 0;
#X connect 7 0 8 0;
#X connect 8 1 5 0;
#X connect 8 1 6 0;
#X connect 8 2 2 1;
#X connect 8 3 2 2;
#X connect 8 4 2 3;
#X connect 8 5 0 1;
#X restore 158 29 pd ADSR;
#X obj 90 98 switch~;
#N canvas 715 298 450 486 switch 0;
#X obj 142 26 inlet;
#X obj 142 306 outlet;
#X obj 142 270 tgl 15 0 empty empty empty 17 7 0 10 -262144 -1 -1 0
1;
#X msg 161 247 0;
#X msg 142 224 1;
#X obj 142 91 f;
#X obj 184 90 + 1;
#X obj 142 64 b;
#X obj 142 142 sel 0 1;
#X obj 142 118 mod 2;
#X obj 161 194 delay;
#X obj 188 26 inlet;
#X connect 0 0 7 0;
#X connect 2 0 1 0;
#X connect 3 0 2 0;
#X connect 4 0 2 0;
#X connect 5 0 6 0;
#X connect 5 0 9 0;
#X connect 6 0 5 1;
#X connect 7 0 5 0;
#X connect 8 0 4 0;
#X connect 8 1 10 0;
#X connect 9 0 8 0;
#X connect 10 0 3 0;
#X connect 11 0 10 1;
#X restore 90 74 pd switch;
#X obj 36 45 unpack f f f f f f;
#N canvas 1082 165 450 300 Velocity 0;
#X obj 142 32 inlet;
#X obj 142 149 outlet;
#X obj 142 120 / 127;
#X obj 142 88 moses 1;
#X floatatom 214 147 5 0 0 0 - - -;
#X connect 0 0 3 0;
#X connect 2 0 1 0;
#X connect 2 0 4 0;
#X connect 3 1 2 0;
#X restore 57 169 pd Velocity;
#X obj 35 207 *~;
#X connect 0 0 8 0;
#X connect 0 0 5 0;
#X connect 1 0 10 0;
#X connect 2 0 1 0;
#X connect 3 0 4 0;
#X connect 5 0 3 1;
#X connect 7 0 6 0;
#X connect 8 0 2 0;
#X connect 8 1 7 0;
#X connect 8 1 9 0;
#X connect 8 5 7 1;
#X connect 9 0 10 1;
#X connect 10 0 3 0;
#X restore 75 258 pd osc;
#N canvas 40 220 450 453 osc 0;
#X obj 36 12 inlet;
#X obj 36 140 osc~;
#X floatatom 36 91 5 0 0 0 - - -;
#X obj 35 262 *~;
#X obj 36 300 outlet~;
#N canvas 755 313 450 300 ADSR 0;
#X obj 233 150 pack f f;
#X msg 233 174 0 \$2;
#X obj 135 151 pack f f f f;
#X msg 135 176 1 \$2 \, \$4 \$3 \$2;
#X obj 135 228 vline~;
#X obj 135 121 >= 1;
#X obj 233 91 select 0;
#X obj 114 25 inlet;
#X obj 114 49 unpack f f f f f f;
#X obj 135 258 outlet~;
#X connect 0 0 1 0;
#X connect 1 0 4 0;
#X connect 2 0 3 0;
#X connect 3 0 4 0;
#X connect 4 0 9 0;
#X connect 5 0 2 0;
#X connect 6 0 0 0;
#X connect 7 0 8 0;
#X connect 8 1 5 0;
#X connect 8 1 6 0;
#X connect 8 2 2 1;
#X connect 8 3 2 2;
#X connect 8 4 2 3;
#X connect 8 5 0 1;
#X restore 158 29 pd ADSR;
#X obj 90 98 switch~;
#N canvas 715 298 450 486 switch 0;
#X obj 142 26 inlet;
#X obj 142 306 outlet;
#X obj 142 270 tgl 15 0 empty empty empty 17 7 0 10 -262144 -1 -1 0
1;
#X msg 161 247 0;
#X msg 142 224 1;
#X obj 142 91 f;
#X obj 184 90 + 1;
#X obj 142 64 b;
#X obj 142 142 sel 0 1;
#X obj 142 118 mod 2;
#X obj 161 194 delay;
#X obj 188 26 inlet;
#X connect 0 0 7 0;
#X connect 2 0 1 0;
#X connect 3 0 2 0;
#X connect 4 0 2 0;
#X connect 5 0 6 0;
#X connect 5 0 9 0;
#X connect 6 0 5 1;
#X connect 7 0 5 0;
#X connect 8 0 4 0;
#X connect 8 1 10 0;
#X connect 9 0 8 0;
#X connect 10 0 3 0;
#X connect 11 0 10 1;
#X restore 90 74 pd switch;
#X obj 36 45 unpack f f f f f f;
#N canvas 1082 165 450 300 Velocity 0;
#X obj 142 32 inlet;
#X obj 142 149 outlet;
#X obj 142 120 / 127;
#X obj 142 88 moses 1;
#X floatatom 214 147 5 0 0 0 - - -;
#X connect 0 0 3 0;
#X connect 2 0 1 0;
#X connect 2 0 4 0;
#X connect 3 1 2 0;
#X restore 57 169 pd Velocity;
#X obj 35 207 *~;
#X connect 0 0 8 0;
#X connect 0 0 5 0;
#X connect 1 0 10 0;
#X connect 2 0 1 0;
#X connect 3 0 4 0;
#X connect 5 0 3 1;
#X connect 7 0 6 0;
#X connect 8 0 2 0;
#X connect 8 1 7 0;
#X connect 8 1 9 0;
#X connect 8 5 7 1;
#X connect 9 0 10 1;
#X connect 10 0 3 0;
#X restore 91 276 pd osc;
#N canvas 40 220 450 453 osc 0;
#X obj 36 12 inlet;
#X obj 36 140 osc~;
#X floatatom 36 91 5 0 0 0 - - -;
#X obj 35 262 *~;
#X obj 36 300 outlet~;
#N canvas 755 313 450 300 ADSR 0;
#X obj 233 150 pack f f;
#X msg 233 174 0 \$2;
#X obj 135 151 pack f f f f;
#X msg 135 176 1 \$2 \, \$4 \$3 \$2;
#X obj 135 228 vline~;
#X obj 135 121 >= 1;
#X obj 233 91 select 0;
#X obj 114 25 inlet;
#X obj 114 49 unpack f f f f f f;
#X obj 135 258 outlet~;
#X connect 0 0 1 0;
#X connect 1 0 4 0;
#X connect 2 0 3 0;
#X connect 3 0 4 0;
#X connect 4 0 9 0;
#X connect 5 0 2 0;
#X connect 6 0 0 0;
#X connect 7 0 8 0;
#X connect 8 1 5 0;
#X connect 8 1 6 0;
#X connect 8 2 2 1;
#X connect 8 3 2 2;
#X connect 8 4 2 3;
#X connect 8 5 0 1;
#X restore 158 29 pd ADSR;
#X obj 90 98 switch~;
#N canvas 715 298 450 486 switch 0;
#X obj 142 26 inlet;
#X obj 142 306 outlet;
#X obj 142 270 tgl 15 0 empty empty empty 17 7 0 10 -262144 -1 -1 0
1;
#X msg 161 247 0;
#X msg 142 224 1;
#X obj 142 91 f;
#X obj 184 90 + 1;
#X obj 142 64 b;
#X obj 142 142 sel 0 1;
#X obj 142 118 mod 2;
#X obj 161 194 delay;
#X obj 188 26 inlet;
#X connect 0 0 7 0;
#X connect 2 0 1 0;
#X connect 3 0 2 0;
#X connect 4 0 2 0;
#X connect 5 0 6 0;
#X connect 5 0 9 0;
#X connect 6 0 5 1;
#X connect 7 0 5 0;
#X connect 8 0 4 0;
#X connect 8 1 10 0;
#X connect 9 0 8 0;
#X connect 10 0 3 0;
#X connect 11 0 10 1;
#X restore 90 74 pd switch;
#X obj 36 45 unpack f f f f f f;
#N canvas 1082 165 450 300 Velocity 0;
#X obj 142 32 inlet;
#X obj 142 149 outlet;
#X obj 142 120 / 127;
#X obj 142 88 moses 1;
#X floatatom 214 147 5 0 0 0 - - -;
#X connect 0 0 3 0;
#X connect 2 0 1 0;
#X connect 2 0 4 0;
#X connect 3 1 2 0;
#X restore 57 169 pd Velocity;
#X obj 35 207 *~;
#X connect 0 0 8 0;
#X connect 0 0 5 0;
#X connect 1 0 10 0;
#X connect 2 0 1 0;
#X connect 3 0 4 0;
#X connect 5 0 3 1;
#X connect 7 0 6 0;
#X connect 8 0 2 0;
#X connect 8 1 7 0;
#X connect 8 1 9 0;
#X connect 8 5 7 1;
#X connect 9 0 10 1;
#X connect 10 0 3 0;
#X restore 107 294 pd osc;
#N canvas 40 220 450 453 osc 0;
#X obj 36 12 inlet;
#X obj 36 140 osc~;
#X floatatom 36 91 5 0 0 0 - - -;
#X obj 35 262 *~;
#X obj 36 300 outlet~;
#N canvas 755 313 450 300 ADSR 0;
#X obj 233 150 pack f f;
#X msg 233 174 0 \$2;
#X obj 135 151 pack f f f f;
#X msg 135 176 1 \$2 \, \$4 \$3 \$2;
#X obj 135 228 vline~;
#X obj 135 121 >= 1;
#X obj 233 91 select 0;
#X obj 114 25 inlet;
#X obj 114 49 unpack f f f f f f;
#X obj 135 258 outlet~;
#X connect 0 0 1 0;
#X connect 1 0 4 0;
#X connect 2 0 3 0;
#X connect 3 0 4 0;
#X connect 4 0 9 0;
#X connect 5 0 2 0;
#X connect 6 0 0 0;
#X connect 7 0 8 0;
#X connect 8 1 5 0;
#X connect 8 1 6 0;
#X connect 8 2 2 1;
#X connect 8 3 2 2;
#X connect 8 4 2 3;
#X connect 8 5 0 1;
#X restore 158 29 pd ADSR;
#X obj 90 98 switch~;
#N canvas 715 298 450 486 switch 0;
#X obj 142 26 inlet;
#X obj 142 306 outlet;
#X obj 142 270 tgl 15 0 empty empty empty 17 7 0 10 -262144 -1 -1 0
1;
#X msg 161 247 0;
#X msg 142 224 1;
#X obj 142 91 f;
#X obj 184 90 + 1;
#X obj 142 64 b;
#X obj 142 142 sel 0 1;
#X obj 142 118 mod 2;
#X obj 161 194 delay;
#X obj 188 26 inlet;
#X connect 0 0 7 0;
#X connect 2 0 1 0;
#X connect 3 0 2 0;
#X connect 4 0 2 0;
#X connect 5 0 6 0;
#X connect 5 0 9 0;
#X connect 6 0 5 1;
#X connect 7 0 5 0;
#X connect 8 0 4 0;
#X connect 8 1 10 0;
#X connect 9 0 8 0;
#X connect 10 0 3 0;
#X connect 11 0 10 1;
#X restore 90 74 pd switch;
#X obj 36 45 unpack f f f f f f;
#N canvas 1082 165 450 300 Velocity 0;
#X obj 142 32 inlet;
#X obj 142 149 outlet;
#X obj 142 120 / 127;
#X obj 142 88 moses 1;
#X floatatom 214 147 5 0 0 0 - - -;
#X connect 0 0 3 0;
#X connect 2 0 1 0;
#X connect 2 0 4 0;
#X connect 3 1 2 0;
#X restore 57 169 pd Velocity;
#X obj 35 207 *~;
#X connect 0 0 8 0;
#X connect 0 0 5 0;
#X connect 1 0 10 0;
#X connect 2 0 1 0;
#X connect 3 0 4 0;
#X connect 5 0 3 1;
#X connect 7 0 6 0;
#X connect 8 0 2 0;
#X connect 8 1 7 0;
#X connect 8 1 9 0;
#X connect 8 5 7 1;
#X connect 9 0 10 1;
#X connect 10 0 3 0;
#X restore 123 258 pd osc;
#X connect 0 0 2 0;
#X connect 0 1 16 1;
#X connect 1 0 7 0;
#X connect 1 1 17 0;
#X connect 1 2 18 0;
#X connect 1 3 19 0;
#X connect 1 4 20 0;
#X connect 1 5 21 0;
#X connect 1 6 22 0;
#X connect 2 0 16 0;
#X connect 3 0 15 3;
#X connect 4 0 15 4;
#X connect 5 0 15 5;
#X connect 6 0 15 6;
#X connect 7 0 9 0;
#X connect 9 0 8 0;
#X connect 9 0 8 1;
#X connect 15 0 1 0;
#X connect 16 0 15 0;
#X connect 16 1 15 1;
#X connect 16 2 15 2;
#X connect 17 0 9 0;
#X connect 18 0 9 0;
#X connect 19 0 9 0;
#X connect 20 0 9 0;
#X connect 21 0 9 0;
#X connect 22 0 9 0;
