#N canvas 839 121 643 561 10;
#X obj 28 114 notein;
#X obj 28 157 poly 7 1;
#X obj 28 219 route 1 2 3 4 5 6 7;
#X obj 28 137 mtof;
#X floatatom 80 121 5 0 0 0 - - -;
#X floatatom 120 121 5 0 0 0 - - -;
#X floatatom 159 121 5 0 0 0 - - -;
#X floatatom 210 122 5 0 0 0 - - -;
#N canvas 327 199 450 453 osc 0;
#X obj 36 12 inlet;
#X obj 36 140 osc~;
#X obj 233 150 pack f f;
#X msg 233 174 0 \$2;
#X obj 116 151 pack f f f f;
#X msg 116 176 1 \$2 \, \$4 \$3 \$2;
#X floatatom 36 91 5 0 0 0 - - -;
#X obj 116 228 vline~;
#X obj 116 121 >= 1;
#X obj 36 45 unpack 0 0 0 0 0 0;
#X obj 35 244 *~;
#X obj 36 282 outlet~;
#X obj 235 91 select 0;
#X connect 0 0 9 0;
#X connect 1 0 10 0;
#X connect 2 0 3 0;
#X connect 3 0 7 0;
#X connect 4 0 5 0;
#X connect 5 0 7 0;
#X connect 6 0 1 0;
#X connect 7 0 10 1;
#X connect 8 0 4 0;
#X connect 9 0 6 0;
#X connect 9 1 8 0;
#X connect 9 1 12 0;
#X connect 9 2 4 1;
#X connect 9 3 4 2;
#X connect 9 4 4 3;
#X connect 9 5 2 1;
#X connect 10 0 11 0;
#X connect 12 0 2 0;
#X restore 28 258 pd osc;
#X obj 28 185 pack 0 0 0 0 0 0 0;
#X obj 62 397 dac~;
#X obj 62 360 /~ 7;
#N canvas 327 199 450 453 osc 0;
#X obj 36 12 inlet;
#X obj 36 140 osc~;
#X obj 332 136 pack f f;
#X msg 332 160 0 \$2;
#X obj 213 126 pack f f f f;
#X msg 213 151 1 \$2 \, \$4 \$3 \$2;
#X floatatom 36 91 5 0 0 0 - - -;
#X obj 213 220 vline~;
#X obj 171 91 >= 1;
#X obj 36 45 unpack 0 0 0 0 0 0;
#X obj 35 200 *~;
#X obj 36 282 outlet~;
#X obj 334 77 select 0;
#X connect 0 0 9 0;
#X connect 1 0 10 0;
#X connect 2 0 3 0;
#X connect 3 0 7 0;
#X connect 4 0 5 0;
#X connect 5 0 7 0;
#X connect 6 0 1 0;
#X connect 7 0 10 1;
#X connect 8 0 4 0;
#X connect 9 0 6 0;
#X connect 9 1 8 0;
#X connect 9 1 12 0;
#X connect 9 2 4 1;
#X connect 9 3 4 2;
#X connect 9 4 4 3;
#X connect 9 5 2 1;
#X connect 10 0 11 0;
#X connect 12 0 2 0;
#X restore 43 278 pd osc;
#N canvas 327 199 450 453 osc 0;
#X obj 36 12 inlet;
#X obj 36 140 osc~;
#X obj 332 136 pack f f;
#X msg 332 160 0 \$2;
#X obj 213 126 pack f f f f;
#X msg 213 151 1 \$2 \, \$4 \$3 \$2;
#X floatatom 36 91 5 0 0 0 - - -;
#X obj 213 220 vline~;
#X obj 171 91 >= 1;
#X obj 36 45 unpack 0 0 0 0 0 0;
#X obj 35 200 *~;
#X obj 36 282 outlet~;
#X obj 334 77 select 0;
#X connect 0 0 9 0;
#X connect 1 0 10 0;
#X connect 2 0 3 0;
#X connect 3 0 7 0;
#X connect 4 0 5 0;
#X connect 5 0 7 0;
#X connect 6 0 1 0;
#X connect 7 0 10 1;
#X connect 8 0 4 0;
#X connect 9 0 6 0;
#X connect 9 1 8 0;
#X connect 9 1 12 0;
#X connect 9 2 4 1;
#X connect 9 3 4 2;
#X connect 9 4 4 3;
#X connect 9 5 2 1;
#X connect 10 0 11 0;
#X connect 12 0 2 0;
#X restore 60 299 pd osc;
#N canvas 327 199 450 453 osc 0;
#X obj 36 12 inlet;
#X obj 36 140 osc~;
#X obj 332 136 pack f f;
#X msg 332 160 0 \$2;
#X obj 213 126 pack f f f f;
#X msg 213 151 1 \$2 \, \$4 \$3 \$2;
#X floatatom 36 91 5 0 0 0 - - -;
#X obj 213 220 vline~;
#X obj 171 91 >= 1;
#X obj 36 45 unpack 0 0 0 0 0 0;
#X obj 35 200 *~;
#X obj 36 282 outlet~;
#X obj 334 77 select 0;
#X connect 0 0 9 0;
#X connect 1 0 10 0;
#X connect 2 0 3 0;
#X connect 3 0 7 0;
#X connect 4 0 5 0;
#X connect 5 0 7 0;
#X connect 6 0 1 0;
#X connect 7 0 10 1;
#X connect 8 0 4 0;
#X connect 9 0 6 0;
#X connect 9 1 8 0;
#X connect 9 1 12 0;
#X connect 9 2 4 1;
#X connect 9 3 4 2;
#X connect 9 4 4 3;
#X connect 9 5 2 1;
#X connect 10 0 11 0;
#X connect 12 0 2 0;
#X restore 75 319 pd osc;
#N canvas 327 199 450 453 osc 0;
#X obj 36 12 inlet;
#X obj 36 140 osc~;
#X obj 332 136 pack f f;
#X msg 332 160 0 \$2;
#X obj 213 126 pack f f f f;
#X msg 213 151 1 \$2 \, \$4 \$3 \$2;
#X floatatom 36 91 5 0 0 0 - - -;
#X obj 213 220 vline~;
#X obj 171 91 >= 1;
#X obj 36 45 unpack 0 0 0 0 0 0;
#X obj 35 200 *~;
#X obj 36 282 outlet~;
#X obj 334 77 select 0;
#X connect 0 0 9 0;
#X connect 1 0 10 0;
#X connect 2 0 3 0;
#X connect 3 0 7 0;
#X connect 4 0 5 0;
#X connect 5 0 7 0;
#X connect 6 0 1 0;
#X connect 7 0 10 1;
#X connect 8 0 4 0;
#X connect 9 0 6 0;
#X connect 9 1 8 0;
#X connect 9 1 12 0;
#X connect 9 2 4 1;
#X connect 9 3 4 2;
#X connect 9 4 4 3;
#X connect 9 5 2 1;
#X connect 10 0 11 0;
#X connect 12 0 2 0;
#X restore 91 260 pd osc;
#N canvas 327 199 450 453 osc 0;
#X obj 36 12 inlet;
#X obj 36 140 osc~;
#X obj 332 136 pack f f;
#X msg 332 160 0 \$2;
#X obj 213 126 pack f f f f;
#X msg 213 151 1 \$2 \, \$4 \$3 \$2;
#X floatatom 36 91 5 0 0 0 - - -;
#X obj 213 220 vline~;
#X obj 171 91 >= 1;
#X obj 36 45 unpack 0 0 0 0 0 0;
#X obj 35 200 *~;
#X obj 36 282 outlet~;
#X obj 334 77 select 0;
#X connect 0 0 9 0;
#X connect 1 0 10 0;
#X connect 2 0 3 0;
#X connect 3 0 7 0;
#X connect 4 0 5 0;
#X connect 5 0 7 0;
#X connect 6 0 1 0;
#X connect 7 0 10 1;
#X connect 8 0 4 0;
#X connect 9 0 6 0;
#X connect 9 1 8 0;
#X connect 9 1 12 0;
#X connect 9 2 4 1;
#X connect 9 3 4 2;
#X connect 9 4 4 3;
#X connect 9 5 2 1;
#X connect 10 0 11 0;
#X connect 12 0 2 0;
#X restore 107 280 pd osc;
#N canvas 327 199 450 453 osc 0;
#X obj 36 12 inlet;
#X obj 36 140 osc~;
#X obj 332 136 pack f f;
#X msg 332 160 0 \$2;
#X obj 213 126 pack f f f f;
#X msg 213 151 1 \$2 \, \$4 \$3 \$2;
#X floatatom 36 91 5 0 0 0 - - -;
#X obj 213 220 vline~;
#X obj 171 91 >= 1;
#X obj 36 45 unpack 0 0 0 0 0 0;
#X obj 35 200 *~;
#X obj 36 282 outlet~;
#X obj 334 77 select 0;
#X connect 0 0 9 0;
#X connect 1 0 10 0;
#X connect 2 0 3 0;
#X connect 3 0 7 0;
#X connect 4 0 5 0;
#X connect 5 0 7 0;
#X connect 6 0 1 0;
#X connect 7 0 10 1;
#X connect 8 0 4 0;
#X connect 9 0 6 0;
#X connect 9 1 8 0;
#X connect 9 1 12 0;
#X connect 9 2 4 1;
#X connect 9 3 4 2;
#X connect 9 4 4 3;
#X connect 9 5 2 1;
#X connect 10 0 11 0;
#X connect 12 0 2 0;
#X restore 123 301 pd osc;
#X text 78 96 Attack;
#X text 119 96 Decay;
#X text 158 95 Sustain;
#X text 208 94 Release;
#X text 254 121 ms;
#X connect 0 0 3 0;
#X connect 0 1 1 1;
#X connect 1 0 9 0;
#X connect 1 1 9 1;
#X connect 1 2 9 2;
#X connect 2 0 8 0;
#X connect 2 1 12 0;
#X connect 2 2 13 0;
#X connect 2 3 14 0;
#X connect 2 4 15 0;
#X connect 2 5 16 0;
#X connect 2 6 17 0;
#X connect 3 0 1 0;
#X connect 4 0 9 3;
#X connect 5 0 9 4;
#X connect 6 0 9 5;
#X connect 7 0 9 6;
#X connect 8 0 11 0;
#X connect 9 0 2 0;
#X connect 11 0 10 0;
#X connect 11 0 10 1;
#X connect 12 0 11 0;
#X connect 13 0 11 0;
#X connect 14 0 11 0;
#X connect 15 0 11 0;
#X connect 16 0 11 0;
#X connect 17 0 11 0;
