#N canvas 126 123 1321 434 10;
#N canvas 43 39 819 294 OSC 0;
#N canvas 516 233 856 300 ROUTER 0;
#X obj 17 12 inlet~ s1;
#X obj 95 12 inlet~ s2;
#X obj 175 12 inlet~ s3;
#X obj 17 250 outlet~;
#X obj 486 5 r sig_source;
#X obj 486 168 sig~;
#X obj 520 168 sig~;
#X obj 555 168 sig~;
#X obj 17 213 *~;
#X obj 95 212 *~;
#X obj 175 212 *~;
#X obj 486 196 lop~ 80;
#X obj 542 196 lop~ 80;
#X obj 599 196 lop~ 80;
#X obj 597 169 sig~;
#X obj 658 196 lop~ 80;
#X obj 249 12 inlet~ s4;
#X obj 248 212 *~;
#X obj 322 11 inlet~ s5;
#X obj 321 213 *~;
#X msg 590 80 0 0 0 0 1 0;
#X msg 569 53 0 0 0 1 0 0;
#X msg 486 53 1 0 0 0 0 0;
#X msg 501 81 0 1 0 0 0 0;
#X msg 517 111 0 0 1 0 0 0;
#X obj 486 29 sel 0 1 2 3 4 5;
#X obj 486 141 unpack f f f f f f;
#X msg 601 110 0 0 0 0 0 1;
#X obj 653 169 sig~;
#X obj 714 196 lop~ 80;
#X obj 708 167 sig~;
#X obj 769 196 lop~ 80;
#X obj 390 213 *~;
#X obj 391 11 inlet~ s6;
#X connect 0 0 8 0;
#X connect 1 0 9 0;
#X connect 2 0 10 0;
#X connect 4 0 25 0;
#X connect 5 0 11 0;
#X connect 6 0 12 0;
#X connect 7 0 13 0;
#X connect 8 0 3 0;
#X connect 9 0 3 0;
#X connect 10 0 3 0;
#X connect 11 0 8 1;
#X connect 12 0 9 1;
#X connect 13 0 10 1;
#X connect 14 0 15 0;
#X connect 15 0 17 1;
#X connect 16 0 17 0;
#X connect 17 0 3 0;
#X connect 18 0 19 0;
#X connect 19 0 3 0;
#X connect 20 0 26 0;
#X connect 21 0 26 0;
#X connect 22 0 26 0;
#X connect 23 0 26 0;
#X connect 24 0 26 0;
#X connect 25 0 22 0;
#X connect 25 1 23 0;
#X connect 25 2 24 0;
#X connect 25 3 21 0;
#X connect 25 4 20 0;
#X connect 25 5 27 0;
#X connect 26 0 5 0;
#X connect 26 1 6 0;
#X connect 26 2 7 0;
#X connect 26 3 14 0;
#X connect 26 4 28 0;
#X connect 26 5 30 0;
#X connect 27 0 26 0;
#X connect 28 0 29 0;
#X connect 29 0 19 1;
#X connect 30 0 31 0;
#X connect 31 0 32 1;
#X connect 32 0 3 0;
#X connect 33 0 32 0;
#X restore 347 162 pd ROUTER;
#X obj 18 31 vradio 15 1 0 6 sig_source empty empty 0 -8 0 10 -262144
-1 -1 0;
#N canvas 959 259 185 210 sine 0;
#X obj -189 40 osc~;
#X obj -189 83 outlet~;
#X obj -189 6 inlet freq;
#X connect 0 0 1 0;
#X connect 2 0 0 0;
#X restore 347 127 pd sine;
#X text 35 28 sine;
#X text 35 45 saw;
#X text 35 61 square;
#X obj 112 31 vradio 15 1 0 6 oct empty empty 0 -8 0 10 -262144 -1
-1 0;
#N canvas 812 421 450 300 octave 0;
#X obj 43 34 inlet;
#X obj 121 70 sel 0 1 2 3 4 5;
#X msg 121 118 1;
#X msg 159 118 2;
#X msg 199 118 4;
#X msg 238 118 8;
#X msg 279 118 16;
#X msg 320 119 32;
#X obj 121 34 r oct;
#X obj 43 213 *;
#X obj 74 168 t b f;
#X obj 43 253 outlet;
#X connect 0 0 9 0;
#X connect 1 0 2 0;
#X connect 1 1 3 0;
#X connect 1 2 4 0;
#X connect 1 3 5 0;
#X connect 1 4 6 0;
#X connect 1 5 7 0;
#X connect 2 0 10 0;
#X connect 3 0 10 0;
#X connect 4 0 10 0;
#X connect 5 0 10 0;
#X connect 6 0 10 0;
#X connect 7 0 10 0;
#X connect 8 0 1 0;
#X connect 9 0 11 0;
#X connect 10 0 9 0;
#X connect 10 1 9 1;
#X restore 347 91 pd octave;
#N canvas 959 259 185 210 saw 0;
#X obj -189 145 outlet~;
#X obj -189 6 inlet freq;
#X obj -189 40 phasor~;
#X obj -188 76 *~ 2;
#X obj -188 110 -~ 1;
#X connect 1 0 2 0;
#X connect 2 0 3 0;
#X connect 3 0 4 0;
#X connect 4 0 0 0;
#X restore 411 128 pd saw;
#X text 132 30 1;
#X text 132 46 2;
#X text 132 61 4;
#X text 132 76 8;
#X text 132 91 16;
#X text 132 106 32;
#X obj 159 33 knob 32 32 -0.01 0.01 0 0 fine fine_in empty 0 -8 0 8
-262144 -1 -1 1550 1;
#N canvas 1066 119 185 229 square 0;
#X obj -189 156 outlet~;
#X obj -189 6 inlet freq;
#X obj -189 47 phasor~;
#X obj -190 81 expr~ ($v1 > 0.5) * 2 - 1;
#X connect 1 0 2 0;
#X connect 2 0 3 0;
#X connect 3 0 0 0;
#X restore 470 128 pd square;
#N canvas 939 287 450 300 fine 0;
#X obj 9 19 inlet;
#X obj 82 24 r fine;
#X obj 82 66 t b f;
#X obj 38 113 *;
#X floatatom 9 63 5 0 0 0 - - -;
#X floatatom 38 140 5 0 0 0 - - -;
#X obj 9 193 +;
#X floatatom 10 236 5 0 0 0 - - -;
#X obj 41 261 outlet;
#X connect 0 0 4 0;
#X connect 1 0 2 0;
#X connect 2 0 3 0;
#X connect 2 0 6 0;
#X connect 2 1 3 1;
#X connect 3 0 5 0;
#X connect 4 0 3 0;
#X connect 4 0 6 0;
#X connect 5 0 6 1;
#X connect 6 0 7 0;
#X connect 7 0 8 0;
#X restore 347 58 pd fine;
#X obj 200 31 bng 15 250 50 0 zero_fine empty empty 17 7 0 10 -262144
-1 -1;
#X obj 458 22 r zero_fine;
#X msg 458 53 0;
#X obj 458 83 s fine_in;
#X text 217 106 OSC 1;
#X obj 347 23 r freq;
#X obj 348 261 s~ out;
#N canvas 974 132 291 159 triangle 0;
#X obj 11 12 inlet;
#X obj 11 66 expr~ (min($v1 \, 1 - $v1) - 0.25) * 4;
#X obj 11 37 phasor~;
#X obj 11 100 outlet~;
#X connect 0 0 2 0;
#X connect 1 0 3 0;
#X connect 2 0 1 0;
#X restore 723 128 pd triangle;
#X text 34 105 triangle;
#X obj 279 14 loadbang;
#X text 35 76 wide pulse;
#N canvas 513 253 450 300 widepulse 0;
#X obj -177 167 outlet~;
#X obj -177 17 inlet freq;
#X obj -177 58 phasor~;
#X obj -178 92 expr~ ($v1 > 0.25) * 2 - 1;
#X connect 1 0 2 0;
#X connect 2 0 3 0;
#X connect 3 0 0 0;
#X restore 544 128 pd widepulse;
#N canvas 765 407 450 300 tri-saw 0;
#X obj -164 191 outlet~;
#X obj -167 27 inlet freq;
#X obj -166 87 *~ 3;
#X obj -165 115 -~ 1;
#X obj -165 147 expr~ if($v1>1 \, (-$v1+1) \, $v1);
#X obj -167 60 phasor~;
#X connect 1 0 5 0;
#X connect 2 0 3 0;
#X connect 3 0 4 0;
#X connect 4 0 0 0;
#X connect 5 0 2 0;
#X restore 628 127 pd tri-saw;
#X text 34 91 tri-saw;
#X text 21 12 Waveform;
#X text 110 12 Range;
#X text 162 13 Fine Tune;
#X obj 348 227 *~;
#X obj 391 227 r mixvol;
#X obj 348 200 *~;
#X obj 391 198 r bypass;
#X connect 0 0 37 0;
#X connect 2 0 0 0;
#X connect 7 0 2 0;
#X connect 7 0 8 0;
#X connect 7 0 16 0;
#X connect 7 0 29 0;
#X connect 7 0 25 0;
#X connect 7 0 30 0;
#X connect 8 0 0 1;
#X connect 16 0 0 2;
#X connect 17 0 7 0;
#X connect 19 0 20 0;
#X connect 20 0 21 0;
#X connect 23 0 17 0;
#X connect 25 0 0 5;
#X connect 27 0 18 0;
#X connect 27 0 1 0;
#X connect 27 0 6 0;
#X connect 29 0 0 3;
#X connect 30 0 0 4;
#X connect 35 0 24 0;
#X connect 36 0 35 1;
#X connect 37 0 35 0;
#X connect 38 0 37 1;
#X coords 0 -1 1 1 250 115 2 10 10;
#X restore 214 4 pd OSC;
#N canvas 311 83 784 565 adsr 0;
#X floatatom 40 246 5 0 0 0 - - -;
#X obj 39 137 knob 32 32 10 10000 0 0 empty empty empty 0 -8 0 8 -262144
-1 -1 43 1;
#X obj 132 137 knob 32 32 0 500 0 0 empty empty empty 0 -8 0 8 -262144
-1 -1 1550 1;
#X obj 311 136 knob 32 32 0 1000 0 0 empty empty empty 0 -8 0 8 -262144
-1 -1 1550 1;
#X floatatom 90 255 5 0 0 0 - - -;
#X floatatom 208 231 5 0 0 0 - - -;
#X obj 163 314 sel 0;
#X obj 44 427 vline~;
#X obj 44 313 pack f f f f;
#X msg 44 372 1 \$2 \, \$4 \$3 \$2;
#X obj 163 364 pack f f;
#X msg 163 410 0 \$2;
#X obj 474 12 loadbang;
#X msg 496 57 500;
#X msg 453 57 250;
#X msg 412 57 150;
#X text 23 113 Attack Time;
#X text 118 113 Decay Time;
#X text 23 174 10 ms 10 sec;
#X text 114 174 10 ms 10 sec;
#X text 291 112 Release Time;
#X text 293 174 10 ms 10 sec;
#X obj 220 139 knob 32 32 0 1 0 0 empty empty empty 0 -8 0 8 -262144
-1 -1 2170 1;
#X text 200 112 Sustain Level;
#X msg 536 56 0.7;
#X floatatom 136 253 5 0 0 0 - - -;
#X text 210 174 0;
#X text 245 174 10;
#X obj 163 286 r adsrinfilter2;
#X obj 37 278 r adsrinfilter1;
#X obj 43 469 s~ filteradsr;
#N canvas 445 254 638 481 filter 0;
#X obj 86 324 moog~;
#X obj 85 148 r~ filter;
#X obj 100 252 +~ 1;
#X obj 100 293 +~ 100;
#X obj 100 272 *~ 2000;
#X obj 100 231 osc~ 0.25;
#X obj 40 45 knob 32 32 0 15000 0 0 filterfreq empty empty 0 -8 0 8
-262144 -1 -1 0 1;
#X text 20 16 Filter Freq;
#X obj 100 191 r filterfreq;
#X obj 86 378 s~ filterout;
#X obj 132 46 knob 32 32 0 4 0 0 filterq filterqload empty 0 -8 0 8
-262144 -1 -1 1550 1;
#X text 121 17 Filter Q;
#X obj 182 308 sig~ 3;
#X obj 182 278 r filterq;
#X obj 216 44 knob 32 32 0 5 0 0 filtervol empty empty 0 -8 0 8 -262144
-1 -1 0 1;
#X text 193 17 Filter Volume;
#X obj 446 53 loadbang;
#X floatatom 282 310 5 0 0 0 - - -;
#X msg 446 85 2;
#X obj 446 121 s filterqload;
#X connect 0 0 9 0;
#X connect 1 0 0 0;
#X connect 2 0 4 0;
#X connect 3 0 0 1;
#X connect 4 0 3 0;
#X connect 5 0 2 0;
#X connect 8 0 5 0;
#X connect 12 0 0 2;
#X connect 13 0 12 0;
#X connect 13 0 17 0;
#X connect 16 0 18 0;
#X connect 18 0 19 0;
#X coords 0 -1 1 1 370 100 2 10 10;
#X restore 10 1 pd filter;
#X connect 0 0 8 1;
#X connect 1 0 0 0;
#X connect 2 0 4 0;
#X connect 3 0 5 0;
#X connect 4 0 8 2;
#X connect 5 0 10 1;
#X connect 6 0 10 0;
#X connect 7 0 30 0;
#X connect 8 0 9 0;
#X connect 9 0 7 0;
#X connect 10 0 11 0;
#X connect 11 0 7 0;
#X connect 12 0 13 0;
#X connect 12 0 14 0;
#X connect 12 0 15 0;
#X connect 12 0 24 0;
#X connect 13 0 3 0;
#X connect 14 0 2 0;
#X connect 15 0 1 0;
#X connect 22 0 25 0;
#X connect 24 0 22 0;
#X connect 25 0 8 3;
#X connect 28 0 6 0;
#X connect 29 0 8 0;
#X coords 0 -1 1 1 370 205 2 10 1;
#X restore 727 4 pd adsr;
#N canvas 0 0 450 300 (subpatch) 0;
#X array array1 1000 float 1;
#A 0 0 0 0 0 0 0 0 0 0 0 0 0 0 0 0 0 0 0 0 0 0 0 0 0 0 0 0 0 0 0 0
0 0 0 0 0 0 0 0 0 0 0 0 0 0 0 0 0 0 0 0 0 0 0 0 0 0 0 0 0 0 0 0 0 0
0 0 0 0 0 0 0 0 0 0 0 0 0 0 0 0 0 0 0 0 0 0 0 0 0 0 0 0 0 0 0 0 0 0
0 0 0 0 0 0 0 0 0 0 0 0 0 0 0 0 0 0 0 0 0 0 0 0 0 0 0 0 0 0 0 0 0 0
0 0 0 0 0 0 0 0 0 0 0 0 0 0 0 0 0 0 0 0 0 0 0 0 0 0 0 0 0 0 0 0 0 0
0 0 0 0 0 0 0 0 0 0 0 0 0 0 0 0 0 0 0 0 0 0 0 0 0 0 0 0 0 0 0 0 0 0
0 0 0 0 0 0 0 0 0 0 0 0 0 0 0 0 0 0 0 0 0 0 0 0 0 0 0 0 0 0 0 0 0 0
0 0 0 0 0 0 0 0 0 0 0 0 0 0 0 0 0 0 0 0 0 0 0 0 0 0 0 0 0 0 0 0 0 0
0 0 0 0 0 0 0 0 0 0 0 0 0 0 0 0 0 0 0 0 0 0 0 0 0 0 0 0 0 0 0 0 0 0
0 0 0 0 0 0 0 0 0 0 0 0 0 0 0 0 0 0 0 0 0 0 0 0 0 0 0 0 0 0 0 0 0 0
0 0 0 0 0 0 0 0 0 0 0 0 0 0 0 0 0 0 0 0 0 0 0 0 0 0 0 0 0 0 0 0 0 0
0 0 0 0 0 0 0 0 0 0 0 0 0 0 0 0 0 0 0 0 0 0 0 0 0 0 0 0 0 0 0 0 0 0
0 0 0 0 0 0 0 0 0 0 0 0 0 0 0 0 0 0 0 0 0 0 0 0 0 0 0 0 0 0 0 0 0 0
0 0 0 0 0 0 0 0 0 0 0 0 0 0 0 0 0 0 0 0 0 0 0 0 0 0 0 0 0 0 0 0 0 0
0 0 0 0 0 0 0 0 0 0 0 0 0 0 0 0 0 0 0 0 0 0 0 0 0 0 0 0 0 0 0 0 0 0
0 0 0 0 0 0 0 0 0 0 0 0 0 0 0 0 0 0 0 0 0 0 0 0 0 0 0 0 0 0 0 0 0 0
0 0 0 0 0 0 0 0 0 0 0 0 0 0 0 0 0 0 0 0 0 0 0 0 0 0 0 0 0 0 0 0 0 0
0 0 0 0 0 0 0 0 0 0 0 0 0 0 0 0 0 0 0 0 0 0 0 0 0 0 0 0 0 0 0 0 0 0
0 0 0 0 0 0 0 0 0 0 0 0 0 0 0 0 0 0 0 0 0 0 0 0 0 0 0 0 0 0 0 0 0 0
0 0 0 0 0 0 0 0 0 0 0 0 0 0 0 0 0 0 0 0 0 0 0 0 0 0 0 0 0 0 0 0 0 0
0 0 0 0 0 0 0 0 0 0 0 0 0 0 0 0 0 0 0 0 0 0 0 0 0 0 0 0 0 0 0 0 0 0
0 0 0 0 0 0 0 0 0 0 0 0 0 0 0 0 0 0 0 0 0 0 0 0 0 0 0 0 0 0 0 0 0 0
0 0 0 0 0 0 0 0 0 0 0 0 0 0 0 0 0 0 0 0 0 0 0 0 0 0 0 0 0 0 0 0 0 0
0 0 0 0 0 0 0 0 0 0 0 0 0 0 0 0 0 0 0 0 0 0 0 0 0 0 0 0 0 0 0 0 0 0
0 0 0 0 0 0 0 0 0 0 0 0 0 0 0 0 0 0 0 0 0 0 0 0 0 0 0 0 0 0 0 0 0 0
0 0 0 0 0 0 0 0 0 0 0 0 0 0 0 0 0 0 0 0 0 0 0 0 0 0 0 0 0 0 0 0 0 0
0 0 0 0 0 0 0 0 0 0 0 0 0 0 0 0 0 0 0 0 0 0 0 0 0 0 0 0 0 0 0 0 0 0
0 0 0 0 0 0 0 0 0 0 0 0 0 0 0 0 0 0 0 0 0 0 0 0 0 0 0 0 0 0 0 0 0 0
0 0 0 0 0 0 0 0 0 0 0 0 0 0 0 0 0 0 0 0 0 0 0 0 0 0 0 0 0 0 0 0 0 0
0 0 0 0 0 0 0 0 0 0 0 0 0 0 0 0 0;
#X coords 0 1 999 -1 200 140 1;
#X restore 1106 69 graph;
#X text 304 374 OSCILLATORS;
#X text 579 374 MIXER;
#N canvas 250 138 914 294 OSC 0;
#N canvas 304 189 856 300 ROUTER 0;
#X obj 17 12 inlet~ s1;
#X obj 95 12 inlet~ s2;
#X obj 175 12 inlet~ s3;
#X obj 17 250 outlet~;
#X obj 486 168 sig~;
#X obj 520 168 sig~;
#X obj 555 168 sig~;
#X obj 17 213 *~;
#X obj 95 212 *~;
#X obj 175 212 *~;
#X obj 486 196 lop~ 80;
#X obj 542 196 lop~ 80;
#X obj 599 196 lop~ 80;
#X obj 597 169 sig~;
#X obj 658 196 lop~ 80;
#X obj 249 12 inlet~ s4;
#X obj 248 212 *~;
#X obj 322 11 inlet~ s5;
#X obj 321 213 *~;
#X msg 590 80 0 0 0 0 1 0;
#X msg 569 53 0 0 0 1 0 0;
#X msg 486 53 1 0 0 0 0 0;
#X msg 501 81 0 1 0 0 0 0;
#X msg 517 111 0 0 1 0 0 0;
#X obj 486 29 sel 0 1 2 3 4 5;
#X obj 486 141 unpack f f f f f f;
#X msg 601 110 0 0 0 0 0 1;
#X obj 653 169 sig~;
#X obj 714 196 lop~ 80;
#X obj 708 167 sig~;
#X obj 769 196 lop~ 80;
#X obj 390 213 *~;
#X obj 391 11 inlet~ s6;
#X obj 486 5 r sig_source2;
#X connect 0 0 7 0;
#X connect 1 0 8 0;
#X connect 2 0 9 0;
#X connect 4 0 10 0;
#X connect 5 0 11 0;
#X connect 6 0 12 0;
#X connect 7 0 3 0;
#X connect 8 0 3 0;
#X connect 9 0 3 0;
#X connect 10 0 7 1;
#X connect 11 0 8 1;
#X connect 12 0 9 1;
#X connect 13 0 14 0;
#X connect 14 0 16 1;
#X connect 15 0 16 0;
#X connect 16 0 3 0;
#X connect 17 0 18 0;
#X connect 18 0 3 0;
#X connect 19 0 25 0;
#X connect 20 0 25 0;
#X connect 21 0 25 0;
#X connect 22 0 25 0;
#X connect 23 0 25 0;
#X connect 24 0 21 0;
#X connect 24 1 22 0;
#X connect 24 2 23 0;
#X connect 24 3 20 0;
#X connect 24 4 19 0;
#X connect 24 5 26 0;
#X connect 25 0 4 0;
#X connect 25 1 5 0;
#X connect 25 2 6 0;
#X connect 25 3 13 0;
#X connect 25 4 27 0;
#X connect 25 5 29 0;
#X connect 26 0 25 0;
#X connect 27 0 28 0;
#X connect 28 0 18 1;
#X connect 29 0 30 0;
#X connect 30 0 31 1;
#X connect 31 0 3 0;
#X connect 32 0 31 0;
#X connect 33 0 24 0;
#X restore 376 175 pd ROUTER;
#X obj 18 31 vradio 15 1 0 6 sig_source2 empty empty 0 -8 0 10 -262144
-1 -1 0;
#N canvas 959 259 185 191 sine 0;
#X obj -189 40 osc~;
#X obj -189 83 outlet~;
#X obj -189 6 inlet freq;
#X connect 0 0 1 0;
#X connect 2 0 0 0;
#X restore 376 140 pd sine;
#X text 35 28 sine;
#X text 35 45 saw;
#X text 35 61 square;
#X obj 109 31 vradio 15 1 0 6 oct2 empty empty 0 -8 0 10 -262144 -1
-1 0;
#N canvas 812 421 450 300 octave 0;
#X obj 43 34 inlet;
#X obj 121 70 sel 0 1 2 3 4 5;
#X msg 121 118 1;
#X msg 159 118 2;
#X msg 199 118 4;
#X msg 238 118 8;
#X msg 279 118 16;
#X msg 320 119 32;
#X obj 43 213 *;
#X obj 74 168 t b f;
#X obj 43 253 outlet;
#X obj 121 34 r oct2;
#X connect 0 0 8 0;
#X connect 1 0 2 0;
#X connect 1 1 3 0;
#X connect 1 2 4 0;
#X connect 1 3 5 0;
#X connect 1 4 6 0;
#X connect 1 5 7 0;
#X connect 2 0 9 0;
#X connect 3 0 9 0;
#X connect 4 0 9 0;
#X connect 5 0 9 0;
#X connect 6 0 9 0;
#X connect 7 0 9 0;
#X connect 8 0 10 0;
#X connect 9 0 8 0;
#X connect 9 1 8 1;
#X connect 11 0 1 0;
#X restore 376 104 pd octave;
#N canvas 959 259 185 210 saw 0;
#X obj -189 145 outlet~;
#X obj -189 6 inlet freq;
#X obj -189 40 phasor~;
#X obj -188 76 *~ 2;
#X obj -188 110 -~ 1;
#X connect 1 0 2 0;
#X connect 2 0 3 0;
#X connect 3 0 4 0;
#X connect 4 0 0 0;
#X restore 440 141 pd saw;
#X text 129 30 1;
#X text 129 46 2;
#X text 129 61 4;
#X text 129 76 8;
#X text 129 91 16;
#X text 129 106 32;
#X obj 161 32 knob 32 32 -0.01 0.01 0 0 fine2 fine_in2 empty 0 -8 0
8 -262144 -1 -1 1550 1;
#N canvas 1066 119 185 229 square 0;
#X obj -189 156 outlet~;
#X obj -189 6 inlet freq;
#X obj -189 47 phasor~;
#X obj -190 81 expr~ ($v1 > 0.5) * 2 - 1;
#X connect 1 0 2 0;
#X connect 2 0 3 0;
#X connect 3 0 0 0;
#X restore 499 141 pd square;
#N canvas 939 287 450 300 fine 0;
#X obj 9 19 inlet;
#X obj 82 66 t b f;
#X obj 38 113 *;
#X floatatom 9 63 5 0 0 0 - - -;
#X floatatom 38 140 5 0 0 0 - - -;
#X obj 9 193 +;
#X floatatom 10 236 5 0 0 0 - - -;
#X obj 41 261 outlet;
#X obj 82 24 r fine2;
#X connect 0 0 3 0;
#X connect 1 0 2 0;
#X connect 1 0 5 0;
#X connect 1 1 2 1;
#X connect 2 0 4 0;
#X connect 3 0 2 0;
#X connect 3 0 5 0;
#X connect 4 0 5 1;
#X connect 5 0 6 0;
#X connect 6 0 7 0;
#X connect 8 0 1 0;
#X restore 376 71 pd fine;
#X obj 202 31 bng 15 250 50 0 zero_fine2 empty empty 17 7 0 10 -262144
-1 -1;
#X msg 487 66 0;
#X obj 376 23 r freq;
#N canvas 974 132 291 159 triangle 0;
#X obj 11 12 inlet;
#X obj 11 66 expr~ (min($v1 \, 1 - $v1) - 0.25) * 4;
#X obj 11 37 phasor~;
#X obj 11 100 outlet~;
#X connect 0 0 2 0;
#X connect 1 0 3 0;
#X connect 2 0 1 0;
#X restore 752 141 pd triangle;
#X text 34 105 triangle;
#X obj 266 14 loadbang;
#X text 35 76 wide pulse;
#N canvas 513 253 450 300 widepulse 0;
#X obj -177 167 outlet~;
#X obj -177 17 inlet freq;
#X obj -177 58 phasor~;
#X obj -178 92 expr~ ($v1 > 0.25) * 2 - 1;
#X connect 1 0 2 0;
#X connect 2 0 3 0;
#X connect 3 0 0 0;
#X restore 573 141 pd widepulse;
#X obj 487 35 r zero_fine2;
#X obj 487 96 s fine_in2;
#X obj 376 265 s~ out2;
#X text 225 106 OSC 2;
#N canvas 765 407 450 300 tri-saw 0;
#X obj -166 177 outlet~;
#X obj -167 27 inlet freq;
#X obj -167 68 phasor~;
#X obj -167 91 *~ 3;
#X obj -166 119 -~ 1;
#X obj -166 151 expr~ if($v1>1 \, (-$v1+1) \, $v1);
#X connect 1 0 2 0;
#X connect 2 0 3 0;
#X connect 3 0 4 0;
#X connect 4 0 5 0;
#X connect 5 0 0 0;
#X restore 657 140 pd tri-saw;
#X text 34 91 tri-saw;
#X text 21 12 Waveform;
#X text 110 12 Range;
#X text 162 13 Fine Tune;
#X floatatom 168 95 5 -12 12 0 - - carpan2;
#X text 157 74 Frequency;
#N canvas 828 46 728 451 tune 0;
#X msg 125 134 2;
#X obj 125 161 expr pow($f1 \, $f2);
#X obj 203 104 /;
#X obj 236 81 t b f;
#X obj 203 130 t b f;
#X floatatom 125 194 8 0 0 0 - - -;
#X msg 236 43 12;
#X obj 125 17 loadbang;
#X obj 23 103 inlet;
#X floatatom 23 156 5 0 0 0 - - -;
#X obj 72 210 t b f;
#X obj 23 227 *;
#X obj 23 272 outlet;
#X floatatom 83 272 5 0 0 0 - - -;
#X obj 175 74 r carpan2;
#X connect 0 0 1 0;
#X connect 1 0 5 0;
#X connect 2 0 4 0;
#X connect 3 0 2 0;
#X connect 3 1 2 1;
#X connect 4 0 1 0;
#X connect 4 1 1 1;
#X connect 5 0 10 0;
#X connect 6 0 3 0;
#X connect 7 0 0 0;
#X connect 7 0 6 0;
#X connect 8 0 9 0;
#X connect 9 0 11 0;
#X connect 10 0 11 0;
#X connect 10 1 11 1;
#X connect 11 0 12 0;
#X connect 11 0 13 0;
#X connect 14 0 2 0;
#X restore 376 47 pd tune;
#X obj 377 233 *~;
#X obj 429 233 r mixvol2;
#X obj 376 205 *~;
#X obj 419 203 r bypass2;
#X connect 0 0 40 0;
#X connect 2 0 0 0;
#X connect 7 0 2 0;
#X connect 7 0 8 0;
#X connect 7 0 16 0;
#X connect 7 0 25 0;
#X connect 7 0 21 0;
#X connect 7 0 30 0;
#X connect 8 0 0 1;
#X connect 16 0 0 2;
#X connect 17 0 7 0;
#X connect 19 0 27 0;
#X connect 20 0 37 0;
#X connect 21 0 0 5;
#X connect 23 0 18 0;
#X connect 23 0 1 0;
#X connect 23 0 6 0;
#X connect 25 0 0 3;
#X connect 26 0 19 0;
#X connect 30 0 0 4;
#X connect 37 0 17 0;
#X connect 38 0 28 0;
#X connect 39 0 38 1;
#X connect 40 0 38 0;
#X connect 41 0 40 1;
#X coords 0 -1 1 1 250 115 2 10 10;
#X restore 214 127 pd OSC;
#N canvas 545 379 828 294 OSC 0;
#N canvas 304 189 856 300 ROUTER 0;
#X obj 17 12 inlet~ s1;
#X obj 95 12 inlet~ s2;
#X obj 175 12 inlet~ s3;
#X obj 17 250 outlet~;
#X obj 486 168 sig~;
#X obj 520 168 sig~;
#X obj 555 168 sig~;
#X obj 17 213 *~;
#X obj 95 212 *~;
#X obj 175 212 *~;
#X obj 486 196 lop~ 80;
#X obj 542 196 lop~ 80;
#X obj 599 196 lop~ 80;
#X obj 597 169 sig~;
#X obj 658 196 lop~ 80;
#X obj 249 12 inlet~ s4;
#X obj 248 212 *~;
#X obj 322 11 inlet~ s5;
#X obj 321 213 *~;
#X msg 590 80 0 0 0 0 1 0;
#X msg 569 53 0 0 0 1 0 0;
#X msg 486 53 1 0 0 0 0 0;
#X msg 501 81 0 1 0 0 0 0;
#X msg 517 111 0 0 1 0 0 0;
#X obj 486 29 sel 0 1 2 3 4 5;
#X obj 486 141 unpack f f f f f f;
#X msg 601 110 0 0 0 0 0 1;
#X obj 653 169 sig~;
#X obj 714 196 lop~ 80;
#X obj 708 167 sig~;
#X obj 769 196 lop~ 80;
#X obj 390 213 *~;
#X obj 391 11 inlet~ s6;
#X obj 486 5 r sig_source3;
#X connect 0 0 7 0;
#X connect 1 0 8 0;
#X connect 2 0 9 0;
#X connect 4 0 10 0;
#X connect 5 0 11 0;
#X connect 6 0 12 0;
#X connect 7 0 3 0;
#X connect 8 0 3 0;
#X connect 9 0 3 0;
#X connect 10 0 7 1;
#X connect 11 0 8 1;
#X connect 12 0 9 1;
#X connect 13 0 14 0;
#X connect 14 0 16 1;
#X connect 15 0 16 0;
#X connect 16 0 3 0;
#X connect 17 0 18 0;
#X connect 18 0 3 0;
#X connect 19 0 25 0;
#X connect 20 0 25 0;
#X connect 21 0 25 0;
#X connect 22 0 25 0;
#X connect 23 0 25 0;
#X connect 24 0 21 0;
#X connect 24 1 22 0;
#X connect 24 2 23 0;
#X connect 24 3 20 0;
#X connect 24 4 19 0;
#X connect 24 5 26 0;
#X connect 25 0 4 0;
#X connect 25 1 5 0;
#X connect 25 2 6 0;
#X connect 25 3 13 0;
#X connect 25 4 27 0;
#X connect 25 5 29 0;
#X connect 26 0 25 0;
#X connect 27 0 28 0;
#X connect 28 0 18 1;
#X connect 29 0 30 0;
#X connect 30 0 31 1;
#X connect 31 0 3 0;
#X connect 32 0 31 0;
#X connect 33 0 24 0;
#X restore 347 162 pd ROUTER;
#N canvas 959 259 185 191 sine 0;
#X obj -189 40 osc~;
#X obj -189 83 outlet~;
#X obj -189 6 inlet freq;
#X connect 0 0 1 0;
#X connect 2 0 0 0;
#X restore 347 127 pd sine;
#N canvas 812 421 450 300 octave 0;
#X obj 43 34 inlet;
#X obj 121 70 sel 0 1 2 3 4 5;
#X msg 121 118 1;
#X msg 159 118 2;
#X msg 199 118 4;
#X msg 238 118 8;
#X msg 279 118 16;
#X msg 320 119 32;
#X obj 43 213 *;
#X obj 74 168 t b f;
#X obj 43 253 outlet;
#X obj 121 34 r oct3;
#X connect 0 0 8 0;
#X connect 1 0 2 0;
#X connect 1 1 3 0;
#X connect 1 2 4 0;
#X connect 1 3 5 0;
#X connect 1 4 6 0;
#X connect 1 5 7 0;
#X connect 2 0 9 0;
#X connect 3 0 9 0;
#X connect 4 0 9 0;
#X connect 5 0 9 0;
#X connect 6 0 9 0;
#X connect 7 0 9 0;
#X connect 8 0 10 0;
#X connect 9 0 8 0;
#X connect 9 1 8 1;
#X connect 11 0 1 0;
#X restore 347 91 pd octave;
#N canvas 959 259 185 210 saw 0;
#X obj -189 145 outlet~;
#X obj -189 6 inlet freq;
#X obj -189 40 phasor~;
#X obj -188 76 *~ 2;
#X obj -188 110 -~ 1;
#X connect 1 0 2 0;
#X connect 2 0 3 0;
#X connect 3 0 4 0;
#X connect 4 0 0 0;
#X restore 411 128 pd saw;
#N canvas 1066 119 185 229 square 0;
#X obj -189 156 outlet~;
#X obj -189 6 inlet freq;
#X obj -189 47 phasor~;
#X obj -190 81 expr~ ($v1 > 0.5) * 2 - 1;
#X connect 1 0 2 0;
#X connect 2 0 3 0;
#X connect 3 0 0 0;
#X restore 470 128 pd square;
#N canvas 939 287 450 300 fine 0;
#X obj 9 19 inlet;
#X obj 82 66 t b f;
#X obj 38 113 *;
#X floatatom 9 63 5 0 0 0 - - -;
#X floatatom 38 140 5 0 0 0 - - -;
#X obj 9 193 +;
#X floatatom 10 236 5 0 0 0 - - -;
#X obj 41 261 outlet;
#X obj 82 23 r fine3;
#X connect 0 0 3 0;
#X connect 1 0 2 0;
#X connect 1 0 5 0;
#X connect 1 1 2 1;
#X connect 2 0 4 0;
#X connect 3 0 2 0;
#X connect 3 0 5 0;
#X connect 4 0 5 1;
#X connect 5 0 6 0;
#X connect 6 0 7 0;
#X connect 8 0 1 0;
#X restore 347 58 pd fine;
#X msg 458 53 0;
#X obj 347 12 r freq;
#N canvas 974 132 291 159 triangle 0;
#X obj 11 12 inlet;
#X obj 11 66 expr~ (min($v1 \, 1 - $v1) - 0.25) * 4;
#X obj 11 37 phasor~;
#X obj 11 100 outlet~;
#X connect 0 0 2 0;
#X connect 1 0 3 0;
#X connect 2 0 1 0;
#X restore 723 128 pd triangle;
#X obj 280 14 loadbang;
#N canvas 513 253 450 300 widepulse 0;
#X obj -177 167 outlet~;
#X obj -177 17 inlet freq;
#X obj -177 58 phasor~;
#X obj -178 92 expr~ ($v1 > 0.25) * 2 - 1;
#X connect 1 0 2 0;
#X connect 2 0 3 0;
#X connect 3 0 0 0;
#X restore 544 128 pd widepulse;
#X obj 458 22 r zero_fine3;
#X obj 458 83 s fine_in3;
#X obj 347 259 s~ out3;
#N canvas 765 407 450 300 tri-saw 0;
#X obj -146 197 outlet~;
#X obj -147 47 inlet freq;
#X obj -147 88 phasor~;
#X obj -147 111 *~ 3;
#X obj -146 139 -~ 1;
#X obj -146 171 expr~ if($v1>1 \, (-$v1+1) \, $v1);
#X connect 1 0 2 0;
#X connect 2 0 3 0;
#X connect 3 0 4 0;
#X connect 4 0 5 0;
#X connect 5 0 0 0;
#X restore 628 127 pd tri-saw;
#X obj 18 31 vradio 15 1 0 6 sig_source3 empty empty 0 -8 0 10 -262144
-1 -1 0;
#X text 35 28 sine;
#X text 35 45 saw;
#X text 35 61 square;
#X obj 109 31 vradio 15 1 0 6 oct3 empty empty 0 -8 0 10 -262144 -1
-1 0;
#X text 129 30 1;
#X text 129 46 2;
#X text 129 61 4;
#X text 129 76 8;
#X text 129 91 16;
#X text 129 106 32;
#X obj 161 32 knob 32 32 -0.01 0.01 0 0 fine3 fine_in3 empty 0 -8 0
8 -262144 -1 -1 1550 1;
#X obj 202 31 bng 15 250 50 0 zero_fine3 empty empty 17 7 0 10 -262144
-1 -1;
#X text 34 105 triangle;
#X text 35 76 wide pulse;
#X text 34 91 tri-saw;
#X text 21 12 Waveform;
#X text 110 12 Range;
#X text 162 13 Fine Tune;
#X floatatom 168 95 5 -12 12 0 - - carpan3;
#X text 157 74 Frequency;
#X text 225 106 OSC 3;
#N canvas 828 46 728 451 tune 0;
#X msg 125 134 2;
#X obj 125 161 expr pow($f1 \, $f2);
#X obj 203 104 /;
#X obj 236 81 t b f;
#X obj 203 130 t b f;
#X floatatom 125 194 8 0 0 0 - - -;
#X msg 236 43 12;
#X obj 125 17 loadbang;
#X obj 23 103 inlet;
#X floatatom 23 156 5 0 0 0 - - -;
#X obj 72 210 t b f;
#X obj 23 227 *;
#X obj 23 272 outlet;
#X floatatom 83 272 5 0 0 0 - - -;
#X obj 178 74 r carpan3;
#X connect 0 0 1 0;
#X connect 1 0 5 0;
#X connect 2 0 4 0;
#X connect 3 0 2 0;
#X connect 3 1 2 1;
#X connect 4 0 1 0;
#X connect 4 1 1 1;
#X connect 5 0 10 0;
#X connect 6 0 3 0;
#X connect 7 0 0 0;
#X connect 7 0 6 0;
#X connect 8 0 9 0;
#X connect 9 0 11 0;
#X connect 10 0 11 0;
#X connect 10 1 11 1;
#X connect 11 0 12 0;
#X connect 11 0 13 0;
#X connect 14 0 2 0;
#X restore 347 35 pd tune;
#X obj 347 227 *~;
#X obj 403 228 r mixvol3;
#X obj 347 198 *~;
#X obj 390 196 r bypass3;
#X connect 0 0 40 0;
#X connect 1 0 0 0;
#X connect 2 0 1 0;
#X connect 2 0 3 0;
#X connect 2 0 4 0;
#X connect 2 0 10 0;
#X connect 2 0 8 0;
#X connect 2 0 14 0;
#X connect 3 0 0 1;
#X connect 4 0 0 2;
#X connect 5 0 2 0;
#X connect 6 0 12 0;
#X connect 7 0 37 0;
#X connect 8 0 0 5;
#X connect 9 0 27 0;
#X connect 9 0 15 0;
#X connect 9 0 19 0;
#X connect 10 0 0 3;
#X connect 11 0 6 0;
#X connect 14 0 0 4;
#X connect 37 0 5 0;
#X connect 38 0 13 0;
#X connect 39 0 38 1;
#X connect 40 0 38 0;
#X connect 41 0 40 1;
#X coords 0 -1 1 1 250 115 2 10 10;
#X restore 214 251 pd OSC;
#N canvas 634 349 450 441 controllers 0;
#X obj 89 123 knob 32 32 -0.01 0.01 0 0 fine_master fine_in_master
empty 0 -8 0 8 -262144 -1 -1 1550 1;
#X text 78 101 Fine Tune;
#X text 88 90 Master;
#X obj 135 122 bng 15 250 50 0 zero_fine_master empty empty 17 7 0
10 -262144 -1 -1;
#X obj 307 18 r zero_fine_master;
#X obj 307 79 s fine_in_master;
#X obj 307 110 r fine_master;
#X floatatom 307 141 8 0 0 0 - - -;
#X obj 307 169 s fine_in;
#X obj 372 169 s fine_in2;
#X obj 307 191 s fine_in3;
#X msg 307 49 0;
#X obj 218 17 loadbang;
#X connect 4 0 11 0;
#X connect 6 0 7 0;
#X connect 7 0 8 0;
#X connect 7 0 10 0;
#X connect 7 0 9 0;
#X connect 11 0 5 0;
#X connect 12 0 11 0;
#X coords 0 -1 1 1 200 363 2 10 10;
#X restore 7 4 pd controllers;
#X text 100 375 CONTROLLERS;
#N canvas 462 102 531 463 mixer 0;
#X obj 29 51 knob 32 32 0 1 0 0 mixvol mixload empty 0 -8 0 8 -262144
-1 -1 1550 1;
#X obj 28 181 knob 32 32 0 1 0 0 mixvol2 mixload empty 0 -8 0 8 -262144
-1 -1 1550 1;
#X obj 30 304 knob 32 32 0 1 0 0 mixvol3 mixload empty 0 -8 0 8 -262144
-1 -1 1550 1;
#X obj 282 14 loadbang;
#X obj 282 72 s mixload;
#X msg 282 42 0.5;
#X obj 89 55 tgl 15 0 bypass_osc loadbypass empty 17 7 0 10 -262144
-1 -1 0 1;
#X obj 89 186 tgl 15 0 bypass_osc2 loadbypass1 empty 17 7 0 10 -262144
-1 -1 1 1;
#X obj 89 309 tgl 15 0 bypass_osc3 loadbypass1 empty 17 7 0 10 -262144
-1 -1 1 1;
#N canvas 128 222 601 496 bypassosc 0;
#X obj 93 35 r bypass_osc;
#X obj 93 227 s bypass;
#X obj 93 75 hradio 15 1 0 2 empty empty empty 0 -8 0 10 -262144 -1
-1 0;
#X obj 93 108 sel 0 1;
#X msg 93 147 1 0;
#X msg 138 148 0 1;
#X msg 93 188 1;
#X msg 138 187 0;
#X connect 0 0 2 0;
#X connect 2 0 3 0;
#X connect 3 0 4 0;
#X connect 3 1 5 0;
#X connect 4 0 6 0;
#X connect 5 0 7 0;
#X connect 6 0 1 0;
#X connect 7 0 1 0;
#X restore 429 16 pd bypassosc;
#N canvas 952 259 601 496 bypassosc2 0;
#X obj 93 75 hradio 15 1 0 2 empty empty empty 0 -8 0 10 -262144 -1
-1 1;
#X obj 93 108 sel 0 1;
#X msg 93 147 1 0;
#X msg 138 148 0 1;
#X msg 93 188 1;
#X msg 138 187 0;
#X obj 93 35 r bypass_osc2;
#X obj 93 227 s bypass2;
#X connect 0 0 1 0;
#X connect 1 0 2 0;
#X connect 1 1 3 0;
#X connect 2 0 4 0;
#X connect 3 0 5 0;
#X connect 4 0 7 0;
#X connect 5 0 7 0;
#X connect 6 0 0 0;
#X restore 429 38 pd bypassosc2;
#N canvas 952 259 601 496 bypassosc3 0;
#X obj 93 75 hradio 15 1 0 2 empty empty empty 0 -8 0 10 -262144 -1
-1 1;
#X obj 93 108 sel 0 1;
#X msg 93 147 1 0;
#X msg 138 148 0 1;
#X msg 93 188 1;
#X msg 138 187 0;
#X obj 93 35 r bypass_osc3;
#X obj 93 227 s bypass3;
#X connect 0 0 1 0;
#X connect 1 0 2 0;
#X connect 1 1 3 0;
#X connect 2 0 4 0;
#X connect 3 0 5 0;
#X connect 4 0 7 0;
#X connect 5 0 7 0;
#X connect 6 0 0 0;
#X restore 429 60 pd bypassosc3;
#X obj 209 239 vradio 15 1 0 2 noiseradio loadbypass empty 0 -8 0 10
-262144 -1 -1 0;
#X text 226 238 white;
#X text 225 252 pink;
#X obj 165 238 knob 32 32 0 1 0 0 mixnoise mixload empty 0 -8 0 8 -262144
-1 -1 1550 1;
#X obj 123 241 tgl 15 0 bypass_noise loadbypass1 empty 17 7 0 10 -262144
-1 -1 1 1;
#X msg 320 41 0;
#X obj 320 99 s loadbypass;
#X text 25 20 Volume OSC 1;
#X text 27 150 Volume OSC 2;
#X text 29 274 Volume OSC 3;
#X text 163 198 Noise;
#N canvas 288 338 462 300 noise 0;
#X obj 219 67 hradio 15 1 0 2 empty empty empty 0 -8 0 10 -262144 -1
-1 0;
#X obj 219 100 sel 0 1;
#X msg 219 141 1 0;
#X msg 264 140 0 1;
#X obj 219 27 r noiseradio;
#X obj 45 41 noise~;
#X obj 106 41 pink~;
#X obj 46 187 *~;
#X obj 107 187 *~;
#X obj 219 170 unpack f f;
#X obj 47 236 outlet~;
#X connect 0 0 1 0;
#X connect 1 0 2 0;
#X connect 1 1 3 0;
#X connect 2 0 9 0;
#X connect 3 0 9 0;
#X connect 4 0 0 0;
#X connect 5 0 7 0;
#X connect 6 0 8 0;
#X connect 7 0 10 0;
#X connect 8 0 10 0;
#X connect 9 0 7 1;
#X connect 9 1 8 1;
#X restore 284 134 pd noise;
#X text 161 215 Volume;
#N canvas 218 230 601 496 bypassnoise 0;
#X obj 93 75 hradio 15 1 0 2 empty empty empty 0 -8 0 10 -262144 -1
-1 1;
#X obj 93 108 sel 0 1;
#X msg 93 147 1 0;
#X msg 138 148 0 1;
#X msg 93 188 1;
#X msg 138 187 0;
#X obj 93 35 r bypass_noise;
#X obj 93 227 s bypassnoise;
#X connect 0 0 1 0;
#X connect 1 0 2 0;
#X connect 1 1 3 0;
#X connect 2 0 4 0;
#X connect 3 0 5 0;
#X connect 4 0 7 0;
#X connect 5 0 7 0;
#X connect 6 0 0 0;
#X restore 429 82 pd bypassnoise;
#X obj 285 176 *~;
#X obj 285 208 *~;
#X obj 286 241 s~ outnoise;
#X obj 319 176 r bypassnoise;
#X obj 320 207 r mixnoise;
#X msg 357 37 1;
#X obj 357 120 s loadbypass1;
#X obj 169 109 knob 32 32 0 10 0 0 mastervolume loadmaster empty 0
-8 0 8 -262144 -1 -1 1550 1;
#X text 146 81 Master Volume;
#X obj 390 142 s loadmaster;
#X msg 390 37 5;
#X text 84 206 Mute;
#X text 84 74 Mute;
#X text 118 260 Mute;
#X text 84 328 Mute;
#X connect 3 0 5 0;
#X connect 3 0 17 0;
#X connect 3 0 31 0;
#X connect 3 0 36 0;
#X connect 5 0 4 0;
#X connect 17 0 18 0;
#X connect 23 0 26 0;
#X connect 26 0 27 0;
#X connect 27 0 28 0;
#X connect 29 0 26 1;
#X connect 30 0 27 1;
#X connect 31 0 32 0;
#X connect 36 0 35 0;
#X coords 0 -1 1 1 250 363 2 10 10;
#X restore 471 4 pd mixer;
#N canvas 615 21 784 565 adsr 0;
#X floatatom 40 246 5 0 0 0 - - -;
#X obj 39 72 knob 32 32 10 10000 0 0 empty empty empty 0 -8 0 8 -262144
-1 -1 43 1;
#X obj 132 72 knob 32 32 0 500 0 0 empty empty empty 0 -8 0 8 -262144
-1 -1 1550 1;
#X obj 311 72 knob 32 32 0 1000 0 0 empty empty empty 0 -8 0 8 -262144
-1 -1 1550 1;
#X floatatom 90 255 5 0 0 0 - - -;
#X floatatom 208 231 5 0 0 0 - - -;
#X obj 44 427 vline~;
#X obj 163 364 pack f f;
#X msg 163 410 0 \$2;
#X obj 477 9 loadbang;
#X msg 499 53 500;
#X msg 456 53 250;
#X msg 415 53 150;
#X text 23 48 Attack Time;
#X text 118 48 Decay Time;
#X text 23 109 10 ms 10 sec;
#X text 114 109 10 ms 10 sec;
#X text 291 48 Release Time;
#X text 293 110 10 ms 10 sec;
#X obj 220 72 knob 32 32 0 1 0 0 empty empty empty 0 -8 0 8 -262144
-1 -1 2170 1;
#X text 200 48 Sustain Level;
#X msg 539 53 0.7;
#X floatatom 136 253 5 0 0 0 - - -;
#X text 210 107 0;
#X text 245 107 10;
#X obj 44 313 pack f f f f;
#X msg 44 373 1 \$2 \, \$4 \$3 \$2;
#X obj 13 281 r adsrin1;
#X obj 160 294 r adsrin2;
#X obj 43 473 s~ adsr;
#X connect 0 0 25 1;
#X connect 1 0 0 0;
#X connect 2 0 4 0;
#X connect 3 0 5 0;
#X connect 4 0 25 2;
#X connect 5 0 7 1;
#X connect 6 0 29 0;
#X connect 7 0 8 0;
#X connect 8 0 6 0;
#X connect 9 0 10 0;
#X connect 9 0 11 0;
#X connect 9 0 12 0;
#X connect 9 0 21 0;
#X connect 10 0 3 0;
#X connect 11 0 2 0;
#X connect 12 0 1 0;
#X connect 19 0 22 0;
#X connect 21 0 19 0;
#X connect 22 0 25 3;
#X connect 25 0 26 0;
#X connect 26 0 6 0;
#X connect 27 0 25 0;
#X connect 28 0 7 0;
#X coords 0 -1 1 1 370 150 2 10 1;
#X restore 727 217 pd adsr;
#N canvas 258 100 503 448 midi-in 0;
#X obj 21 12 notein;
#X obj 21 48 stripnote;
#X obj 123 29 t b f;
#X obj 123 75 float;
#X obj 190 76 float;
#X obj 123 121 select 0;
#X obj 190 121 select;
#X obj 21 75 mtof;
#X obj 190 163 s adsrin2;
#X obj 168 198 s adsrin1;
#X floatatom 21 114 5 0 0 0 - - freq;
#X obj 64 206 s vel;
#X obj 64 172 / 127;
#X connect 0 0 1 0;
#X connect 0 0 2 0;
#X connect 0 1 1 1;
#X connect 0 1 3 1;
#X connect 1 0 7 0;
#X connect 1 0 6 1;
#X connect 2 0 3 0;
#X connect 2 1 4 1;
#X connect 3 0 5 0;
#X connect 4 0 6 0;
#X connect 5 0 4 0;
#X connect 5 1 9 0;
#X connect 5 1 12 0;
#X connect 6 0 8 0;
#X connect 7 0 10 0;
#X connect 12 0 11 0;
#X restore 1108 7 pd midi-in;
#N canvas 716 160 734 439 out 0;
#X obj 223 319 dac~;
#X obj 173 17 r~ out;
#X obj 221 17 r~ out2;
#X obj 222 60 *~;
#X obj 271 44 r~ adsr;
#X obj 223 86 *~;
#X obj 273 69 r vel;
#X obj 29 217 tabwrite~ array1;
#X obj 29 173 tgl 15 0 empty empty empty 17 7 0 10 -262144 -1 -1 1
1;
#X obj 29 193 metro 100;
#X obj 274 18 r~ out3;
#N canvas 547 18 723 656 antialiasing 0;
#X obj 31 279 *~ 0.125;
#X obj 31 302 rzero~ -1;
#X obj 31 325 rzero~ -1;
#X obj 31 348 rzero~ -1;
#X obj 214 39 block~ 1024 1 16;
#X obj 31 382 outlet~;
#X obj 30 176 rpole~ 0.87467;
#X obj 30 153 *~ 0.12532;
#X obj 30 199 *~ 0.01668;
#X obj 30 222 cpole~ 0.9293 0.10812;
#X obj 30 248 cpole~ 0.9293 -0.10812;
#X obj 31 88 inlet~;
#X connect 0 0 1 0;
#X connect 1 0 2 0;
#X connect 2 0 3 0;
#X connect 3 0 5 0;
#X connect 6 0 8 0;
#X connect 7 0 6 0;
#X connect 8 0 9 0;
#X connect 9 0 10 0;
#X connect 9 1 10 1;
#X connect 10 0 0 0;
#X connect 11 0 7 0;
#X restore 223 173 pd antialiasing;
#X obj 130 52 r~ outnoise;
#X obj 187 70 *~;
#X obj 29 123 loadbang;
#X obj 222 270 freeverb~;
#X msg 346 220 dry 1;
#X msg 346 193 damping 1;
#X msg 346 285 roomsize 1;
#X msg 346 253 wet 0.1;
#X msg 407 232 wet 0;
#X obj 346 146 loadbang;
#X obj 130 104 r~ adsr;
#X obj 120 183 r mastervolume;
#X obj 223 200 *~;
#X obj 522 89 s~ filter;
#X obj 523 148 *~;
#X obj 561 146 r filtervol;
#X obj 523 116 r~ filterout;
#X connect 1 0 3 0;
#X connect 2 0 3 0;
#X connect 3 0 5 0;
#X connect 4 0 3 1;
#X connect 5 0 11 0;
#X connect 6 0 5 1;
#X connect 8 0 9 0;
#X connect 9 0 7 0;
#X connect 10 0 3 0;
#X connect 11 0 24 0;
#X connect 12 0 13 0;
#X connect 13 0 5 0;
#X connect 14 0 8 0;
#X connect 15 0 0 0;
#X connect 15 0 0 1;
#X connect 15 0 7 0;
#X connect 16 0 15 0;
#X connect 17 0 15 0;
#X connect 18 0 15 0;
#X connect 19 0 15 0;
#X connect 20 0 15 0;
#X connect 21 0 17 0;
#X connect 21 0 16 0;
#X connect 21 0 19 0;
#X connect 21 0 18 0;
#X connect 22 0 13 1;
#X connect 23 0 24 1;
#X connect 24 0 15 0;
#X connect 27 0 26 1;
#X connect 28 0 26 0;
#X restore 1108 33 pd out;
#X text 1132 349 by Malik Enes Şafak (2014);
#X text 864 377 Filter & ADSR;
