#N canvas 0 0 450 300 10;
#X obj 32 24 inlet;
#X obj 32 59 unpack f f f f f f f;
#X floatatom 32 91 5 0 0 0 - - -;
#X floatatom 51 108 5 0 0 0 - - -;
#X floatatom 71 91 5 0 0 0 - - -;
#X floatatom 90 108 5 0 0 0 - - -;
#X floatatom 110 91 5 0 0 0 - - -;
#X floatatom 129 108 5 0 0 0 - - -;
#X floatatom 149 91 5 0 0 0 - - -;
#X msg 32 147 /multi1/poly \$1;
#X msg 51 165 /multi1/freq \$1;
#X msg 71 183 /multi1/vel \$1;
#X msg 90 201 /multi1/attack \$1;
#X msg 110 219 /multi1/decay \$1;
#X msg 129 237 /multi1/sustain \$1;
#X msg 149 255 /multi1/release \$1;
#X obj 32 272 s udpsend;
#X connect 0 0 1 0;
#X connect 1 0 2 0;
#X connect 1 1 3 0;
#X connect 1 2 4 0;
#X connect 1 3 5 0;
#X connect 1 4 6 0;
#X connect 1 5 7 0;
#X connect 1 6 8 0;
#X connect 2 0 9 0;
#X connect 3 0 10 0;
#X connect 4 0 11 0;
#X connect 5 0 12 0;
#X connect 6 0 13 0;
#X connect 7 0 14 0;
#X connect 8 0 15 0;
#X connect 9 0 16 0;
#X connect 10 0 16 0;
#X connect 11 0 16 0;
#X connect 12 0 16 0;
#X connect 13 0 16 0;
#X connect 14 0 16 0;
#X connect 15 0 16 0;
